<svg width="159" height="213" viewBox="0 0 159 213" fill="none" xmlns="http://www.w3.org/2000/svg">
<path d="M6.92651 20V2.996H0.374508V1.8H14.8045V2.996H8.25251V20H6.92651ZM17.3214 20V6.428H18.5694V10.146L18.4394 9.73C18.8208 8.638 19.4621 7.79733 20.3634 7.208C21.2648 6.61867 22.3914 6.324 23.7434 6.324V7.598C23.6914 7.598 23.6394 7.598 23.5874 7.598C23.5354 7.58067 23.4834 7.572 23.4314 7.572C21.9234 7.572 20.7448 8.04867 19.8954 9.002C19.0461 9.938 18.6214 11.2467 18.6214 12.928V20H17.3214ZM34.8637 20V16.906L34.8117 16.438V11.342C34.8117 10.0767 34.465 9.11467 33.7717 8.456C33.0957 7.79733 32.099 7.468 30.7817 7.468C29.8457 7.468 28.9704 7.63267 28.1557 7.962C27.3584 8.274 26.6737 8.68133 26.1017 9.184L25.4517 8.248C26.1277 7.64133 26.9424 7.17333 27.8957 6.844C28.849 6.49733 29.8457 6.324 30.8857 6.324C32.567 6.324 33.8584 6.74867 34.7597 7.598C35.661 8.44733 36.1117 9.71267 36.1117 11.394V20H34.8637ZM29.9757 20.104C28.9704 20.104 28.095 19.948 27.3497 19.636C26.6217 19.3067 26.0584 18.8473 25.6597 18.258C25.2784 17.6687 25.0877 16.9927 25.0877 16.23C25.0877 15.5367 25.2437 14.9127 25.5557 14.358C25.885 13.786 26.4224 13.3267 27.1677 12.98C27.913 12.616 28.9097 12.434 30.1577 12.434H35.1497V13.448H30.1837C28.7797 13.448 27.7917 13.708 27.2197 14.228C26.665 14.748 26.3877 15.398 26.3877 16.178C26.3877 17.0447 26.717 17.738 27.3757 18.258C28.0344 18.778 28.9617 19.038 30.1577 19.038C31.3017 19.038 32.2637 18.778 33.0437 18.258C33.841 17.738 34.4304 16.984 34.8117 15.996L35.1757 16.88C34.8117 17.868 34.1877 18.6567 33.3037 19.246C32.437 19.818 31.3277 20.104 29.9757 20.104ZM48.0979 6.324C49.2072 6.324 50.1692 6.54067 50.9839 6.974C51.8159 7.39 52.4572 8.03133 52.9079 8.898C53.3759 9.74733 53.6099 10.8047 53.6099 12.07V20H52.3099V12.174C52.3099 10.6487 51.9199 9.48733 51.1399 8.69C50.3772 7.89267 49.3026 7.494 47.9159 7.494C46.8586 7.494 45.9399 7.71067 45.1599 8.144C44.3799 8.57733 43.7819 9.184 43.3659 9.964C42.9672 10.744 42.7679 11.68 42.7679 12.772V20H41.4679V6.428H42.7159V10.198L42.5339 9.782C42.9499 8.70733 43.6346 7.86667 44.5879 7.26C45.5412 6.636 46.7112 6.324 48.0979 6.324ZM64.1881 20.104C62.9227 20.104 61.7787 19.818 60.7561 19.246C59.7507 18.6567 58.9534 17.842 58.3641 16.802C57.7747 15.762 57.4801 14.566 57.4801 13.214C57.4801 11.862 57.7747 10.666 58.3641 9.626C58.9534 8.586 59.7507 7.78 60.7561 7.208C61.7787 6.61867 62.9227 6.324 64.1881 6.324C65.4014 6.324 66.4847 6.60133 67.4381 7.156C68.4087 7.71067 69.1714 8.508 69.7261 9.548C70.2807 10.5707 70.5581 11.7927 70.5581 13.214C70.5581 14.6353 70.2721 15.866 69.7001 16.906C69.1454 17.9287 68.3827 18.7173 67.4121 19.272C66.4587 19.8267 65.3841 20.104 64.1881 20.104ZM64.2661 18.934C65.3061 18.934 66.2334 18.7 67.0481 18.232C67.8801 17.7467 68.5301 17.0707 68.9981 16.204C69.4834 15.3373 69.7261 14.3407 69.7261 13.214C69.7261 12.07 69.4834 11.0733 68.9981 10.224C68.5301 9.35733 67.8801 8.69 67.0481 8.222C66.2334 7.73667 65.3061 7.494 64.2661 7.494C63.2261 7.494 62.2901 7.73667 61.4581 8.222C60.6434 8.69 59.9934 9.35733 59.5081 10.224C59.0401 11.0733 58.8061 12.07 58.8061 13.214C58.8061 14.3407 59.0401 15.3373 59.5081 16.204C59.9934 17.0707 60.6434 17.7467 61.4581 18.232C62.2901 18.7 63.2261 18.934 64.2661 18.934ZM69.7261 25.044V15.606L69.9861 13.24L69.7521 10.874V6.428H71.0261V25.044H69.7261ZM82.019 20.104C80.8576 20.104 79.8523 19.896 79.003 19.48C78.1536 19.0467 77.495 18.4053 77.027 17.556C76.5763 16.6893 76.351 15.6233 76.351 14.358V6.428H77.651V14.254C77.651 15.7793 78.041 16.9407 78.821 17.738C79.601 18.5353 80.7016 18.934 82.123 18.934C83.1456 18.934 84.0296 18.7173 84.775 18.284C85.5203 17.8507 86.0923 17.244 86.491 16.464C86.8896 15.6667 87.089 14.7307 87.089 13.656V6.428H88.389V20H87.141V16.23L87.323 16.672C86.9243 17.7293 86.257 18.57 85.321 19.194C84.4023 19.8007 83.3016 20.104 82.019 20.104ZM93.8996 20V6.428H95.1996V20H93.8996ZM94.5496 3.126C94.2549 3.126 94.0036 3.022 93.7956 2.814C93.5876 2.606 93.4836 2.36333 93.4836 2.086C93.4836 1.79133 93.5876 1.54 93.7956 1.332C94.0036 1.124 94.2549 1.02 94.5496 1.02C94.8616 1.02 95.1129 1.124 95.3036 1.332C95.5116 1.52267 95.6156 1.76533 95.6156 2.06C95.6156 2.35467 95.5116 2.606 95.3036 2.814C95.1129 3.022 94.8616 3.126 94.5496 3.126ZM100.679 20V0.707999H101.979V20H100.679ZM107.458 20V6.428H108.758V20H107.458ZM108.108 3.126C107.813 3.126 107.562 3.022 107.354 2.814C107.146 2.606 107.042 2.36333 107.042 2.086C107.042 1.79133 107.146 1.54 107.354 1.332C107.562 1.124 107.813 1.02 108.108 1.02C108.42 1.02 108.671 1.124 108.862 1.332C109.07 1.52267 109.174 1.76533 109.174 2.06C109.174 2.35467 109.07 2.606 108.862 2.814C108.671 3.022 108.42 3.126 108.108 3.126ZM119.463 20.104C118.198 20.104 117.054 19.818 116.031 19.246C115.026 18.6567 114.229 17.842 113.639 16.802C113.05 15.762 112.755 14.566 112.755 13.214C112.755 11.8447 113.05 10.6487 113.639 9.626C114.229 8.586 115.026 7.78 116.031 7.208C117.054 6.61867 118.198 6.324 119.463 6.324C120.659 6.324 121.734 6.60133 122.687 7.156C123.658 7.71067 124.421 8.49933 124.975 9.522C125.547 10.5447 125.833 11.7753 125.833 13.214C125.833 14.618 125.556 15.84 125.001 16.88C124.447 17.92 123.684 18.7173 122.713 19.272C121.76 19.8267 120.677 20.104 119.463 20.104ZM119.541 18.934C120.581 18.934 121.509 18.7 122.323 18.232C123.155 17.7467 123.805 17.0707 124.273 16.204C124.759 15.3373 125.001 14.3407 125.001 13.214C125.001 12.07 124.759 11.0733 124.273 10.224C123.805 9.35733 123.155 8.69 122.323 8.222C121.509 7.73667 120.581 7.494 119.541 7.494C118.501 7.494 117.565 7.73667 116.733 8.222C115.919 8.69 115.269 9.35733 114.783 10.224C114.315 11.0733 114.081 12.07 114.081 13.214C114.081 14.3407 114.315 15.3373 114.783 16.204C115.269 17.0707 115.919 17.7467 116.733 18.232C117.565 18.7 118.501 18.934 119.541 18.934ZM125.027 20V15.554L125.261 13.188L125.001 10.822V0.707999H126.301V20H125.027ZM140.336 20V16.906L140.284 16.438V11.342C140.284 10.0767 139.938 9.11467 139.244 8.456C138.568 7.79733 137.572 7.468 136.254 7.468C135.318 7.468 134.443 7.63267 133.628 7.962C132.831 8.274 132.146 8.68133 131.574 9.184L130.924 8.248C131.6 7.64133 132.415 7.17333 133.368 6.844C134.322 6.49733 135.318 6.324 136.358 6.324C138.04 6.324 139.331 6.74867 140.232 7.598C141.134 8.44733 141.584 9.71267 141.584 11.394V20H140.336ZM135.448 20.104C134.443 20.104 133.568 19.948 132.822 19.636C132.094 19.3067 131.531 18.8473 131.132 18.258C130.751 17.6687 130.56 16.9927 130.56 16.23C130.56 15.5367 130.716 14.9127 131.028 14.358C131.358 13.786 131.895 13.3267 132.64 12.98C133.386 12.616 134.382 12.434 135.63 12.434H140.622V13.448H135.656C134.252 13.448 133.264 13.708 132.692 14.228C132.138 14.748 131.86 15.398 131.86 16.178C131.86 17.0447 132.19 17.738 132.848 18.258C133.507 18.778 134.434 19.038 135.63 19.038C136.774 19.038 137.736 18.778 138.516 18.258C139.314 17.738 139.903 16.984 140.284 15.996L140.648 16.88C140.284 17.868 139.66 18.6567 138.776 19.246C137.91 19.818 136.8 20.104 135.448 20.104ZM152.167 20.104C150.901 20.104 149.757 19.818 148.735 19.246C147.729 18.6567 146.932 17.842 146.343 16.802C145.753 15.762 145.459 14.566 145.459 13.214C145.459 11.8447 145.753 10.6487 146.343 9.626C146.932 8.586 147.729 7.78 148.735 7.208C149.757 6.61867 150.901 6.324 152.167 6.324C153.363 6.324 154.437 6.60133 155.391 7.156C156.361 7.71067 157.124 8.49933 157.679 9.522C158.251 10.5447 158.537 11.7753 158.537 13.214C158.537 14.618 158.259 15.84 157.705 16.88C157.15 17.92 156.387 18.7173 155.417 19.272C154.463 19.8267 153.38 20.104 152.167 20.104ZM152.245 18.934C153.285 18.934 154.212 18.7 155.027 18.232C155.859 17.7467 156.509 17.0707 156.977 16.204C157.462 15.3373 157.705 14.3407 157.705 13.214C157.705 12.07 157.462 11.0733 156.977 10.224C156.509 9.35733 155.859 8.69 155.027 8.222C154.212 7.73667 153.285 7.494 152.245 7.494C151.205 7.494 150.269 7.73667 149.437 8.222C148.622 8.69 147.972 9.35733 147.487 10.224C147.019 11.0733 146.785 12.07 146.785 13.214C146.785 14.3407 147.019 15.3373 147.487 16.204C147.972 17.0707 148.622 17.7467 149.437 18.232C150.269 18.7 151.205 18.934 152.245 18.934ZM157.731 20V15.554L157.965 13.188L157.705 10.822V0.707999H159.005V20H157.731ZM23.3212 52.13C21.9692 52.13 20.6866 51.9047 19.4732 51.454C18.2772 50.986 17.3499 50.388 16.6912 49.66L17.2892 48.672C17.9132 49.3133 18.7626 49.8593 19.8372 50.31C20.9292 50.7433 22.0819 50.96 23.2952 50.96C24.5086 50.96 25.4966 50.804 26.2592 50.492C27.0392 50.1627 27.6112 49.7293 27.9752 49.192C28.3566 48.6547 28.5472 48.0567 28.5472 47.398C28.5472 46.618 28.3392 45.994 27.9232 45.526C27.5072 45.058 26.9612 44.6853 26.2852 44.408C25.6092 44.1307 24.8726 43.8967 24.0752 43.706C23.2779 43.5153 22.4719 43.316 21.6572 43.108C20.8426 42.8827 20.0972 42.5967 19.4212 42.25C18.7452 41.9033 18.1992 41.4353 17.7832 40.846C17.3846 40.2393 17.1852 39.4593 17.1852 38.506C17.1852 37.6393 17.4106 36.842 17.8612 36.114C18.3119 35.386 19.0139 34.7967 19.9672 34.346C20.9206 33.8953 22.1426 33.67 23.6332 33.67C24.6386 33.67 25.6266 33.8173 26.5972 34.112C27.5852 34.4067 28.4259 34.8053 29.1192 35.308L28.6252 36.374C27.8626 35.854 27.0392 35.4727 26.1552 35.23C25.2886 34.97 24.4479 34.84 23.6332 34.84C22.4719 34.84 21.5099 35.0047 20.7472 35.334C19.9846 35.6633 19.4212 36.1053 19.0572 36.66C18.6932 37.1973 18.5112 37.804 18.5112 38.48C18.5112 39.26 18.7106 39.884 19.1092 40.352C19.5252 40.82 20.0712 41.1927 20.7472 41.47C21.4232 41.7473 22.1686 41.9813 22.9832 42.172C23.7979 42.3627 24.6039 42.5707 25.4012 42.796C26.1986 43.004 26.9352 43.2813 27.6112 43.628C28.2872 43.9747 28.8332 44.4427 29.2492 45.032C29.6652 45.6213 29.8732 46.384 29.8732 47.32C29.8732 48.1693 29.6392 48.9667 29.1712 49.712C28.7032 50.44 27.9839 51.0293 27.0132 51.48C26.0599 51.9133 24.8292 52.13 23.3212 52.13ZM39.477 52.104C38.1077 52.104 36.8943 51.8093 35.837 51.22C34.797 50.6307 33.9737 49.816 33.367 48.776C32.7777 47.736 32.483 46.5487 32.483 45.214C32.483 43.862 32.7603 42.6747 33.315 41.652C33.887 40.612 34.667 39.7973 35.655 39.208C36.643 38.6187 37.7523 38.324 38.983 38.324C40.2137 38.324 41.3143 38.61 42.285 39.182C43.273 39.754 44.0443 40.56 44.599 41.6C45.171 42.6227 45.457 43.81 45.457 45.162C45.457 45.214 45.4483 45.2747 45.431 45.344C45.431 45.396 45.431 45.4567 45.431 45.526H33.445V44.512H44.729L44.209 45.006C44.2263 43.9487 44.001 43.004 43.533 42.172C43.0823 41.3227 42.467 40.664 41.687 40.196C40.907 39.7107 40.0057 39.468 38.983 39.468C37.9777 39.468 37.0763 39.7107 36.279 40.196C35.499 40.664 34.8837 41.3227 34.433 42.172C33.9823 43.004 33.757 43.9573 33.757 45.032V45.266C33.757 46.3753 33.9997 47.3633 34.485 48.23C34.9877 49.0793 35.6723 49.7467 36.539 50.232C37.4057 50.7 38.3937 50.934 39.503 50.934C40.3697 50.934 41.1757 50.778 41.921 50.466C42.6837 50.154 43.325 49.6773 43.845 49.036L44.599 49.894C44.0097 50.622 43.2643 51.1767 42.363 51.558C41.479 51.922 40.517 52.104 39.477 52.104ZM49.4787 52V38.428H50.7267V42.146L50.5967 41.73C50.978 40.638 51.6193 39.7973 52.5207 39.208C53.422 38.6187 54.5487 38.324 55.9007 38.324V39.598C55.8487 39.598 55.7967 39.598 55.7447 39.598C55.6927 39.5807 55.6407 39.572 55.5887 39.572C54.0807 39.572 52.902 40.0487 52.0527 41.002C51.2033 41.938 50.7787 43.2467 50.7787 44.928V52H49.4787ZM64.8676 52.104C63.4983 52.104 62.2849 51.8093 61.2276 51.22C60.1876 50.6307 59.3643 49.816 58.7576 48.776C58.1683 47.736 57.8736 46.5487 57.8736 45.214C57.8736 43.862 58.1509 42.6747 58.7056 41.652C59.2776 40.612 60.0576 39.7973 61.0456 39.208C62.0336 38.6187 63.1429 38.324 64.3736 38.324C65.6043 38.324 66.7049 38.61 67.6756 39.182C68.6636 39.754 69.4349 40.56 69.9896 41.6C70.5616 42.6227 70.8476 43.81 70.8476 45.162C70.8476 45.214 70.8389 45.2747 70.8216 45.344C70.8216 45.396 70.8216 45.4567 70.8216 45.526H58.8356V44.512H70.1196L69.5996 45.006C69.6169 43.9487 69.3916 43.004 68.9236 42.172C68.4729 41.3227 67.8576 40.664 67.0776 40.196C66.2976 39.7107 65.3963 39.468 64.3736 39.468C63.3683 39.468 62.4669 39.7107 61.6696 40.196C60.8896 40.664 60.2743 41.3227 59.8236 42.172C59.3729 43.004 59.1476 43.9573 59.1476 45.032V45.266C59.1476 46.3753 59.3903 47.3633 59.8756 48.23C60.3783 49.0793 61.0629 49.7467 61.9296 50.232C62.7963 50.7 63.7843 50.934 64.8936 50.934C65.7603 50.934 66.5663 50.778 67.3116 50.466C68.0743 50.154 68.7156 49.6773 69.2356 49.036L69.9896 49.894C69.4003 50.622 68.6549 51.1767 67.7536 51.558C66.8696 51.922 65.9076 52.104 64.8676 52.104ZM81.4993 38.324C82.6086 38.324 83.5706 38.5407 84.3853 38.974C85.2173 39.39 85.8586 40.0313 86.3093 40.898C86.7773 41.7473 87.0113 42.8047 87.0113 44.07V52H85.7113V44.174C85.7113 42.6487 85.3213 41.4873 84.5413 40.69C83.7786 39.8927 82.7039 39.494 81.3173 39.494C80.2599 39.494 79.3413 39.7107 78.5613 40.144C77.7813 40.5773 77.1833 41.184 76.7673 41.964C76.3686 42.744 76.1693 43.68 76.1693 44.772V52H74.8693V38.428H76.1173V42.198L75.9353 41.782C76.3513 40.7073 77.0359 39.8667 77.9893 39.26C78.9426 38.636 80.1126 38.324 81.4993 38.324ZM92.3634 52V38.428H93.6634V52H92.3634ZM93.0134 35.126C92.7188 35.126 92.4674 35.022 92.2594 34.814C92.0514 34.606 91.9474 34.3633 91.9474 34.086C91.9474 33.7913 92.0514 33.54 92.2594 33.332C92.4674 33.124 92.7188 33.02 93.0134 33.02C93.3254 33.02 93.5768 33.124 93.7674 33.332C93.9754 33.5227 94.0794 33.7653 94.0794 34.06C94.0794 34.3547 93.9754 34.606 93.7674 34.814C93.5768 35.022 93.3254 35.126 93.0134 35.126ZM104.369 52.104C103.103 52.104 101.959 51.818 100.937 51.246C99.9314 50.6567 99.1341 49.842 98.5447 48.802C97.9554 47.762 97.6607 46.566 97.6607 45.214C97.6607 43.8447 97.9554 42.6487 98.5447 41.626C99.1341 40.586 99.9314 39.78 100.937 39.208C101.959 38.6187 103.103 38.324 104.369 38.324C105.565 38.324 106.639 38.6013 107.593 39.156C108.563 39.7107 109.326 40.4993 109.881 41.522C110.453 42.5447 110.739 43.7753 110.739 45.214C110.739 46.618 110.461 47.84 109.907 48.88C109.352 49.92 108.589 50.7173 107.619 51.272C106.665 51.8267 105.582 52.104 104.369 52.104ZM104.447 50.934C105.487 50.934 106.414 50.7 107.229 50.232C108.061 49.7467 108.711 49.0707 109.179 48.204C109.664 47.3373 109.907 46.3407 109.907 45.214C109.907 44.07 109.664 43.0733 109.179 42.224C108.711 41.3573 108.061 40.69 107.229 40.222C106.414 39.7367 105.487 39.494 104.447 39.494C103.407 39.494 102.471 39.7367 101.639 40.222C100.824 40.69 100.174 41.3573 99.6887 42.224C99.2207 43.0733 98.9867 44.07 98.9867 45.214C98.9867 46.3407 99.2207 47.3373 99.6887 48.204C100.174 49.0707 100.824 49.7467 101.639 50.232C102.471 50.7 103.407 50.934 104.447 50.934ZM109.933 52V47.554L110.167 45.188L109.907 42.822V32.708H111.207V52H109.933ZM125.242 52V48.906L125.19 48.438V43.342C125.19 42.0767 124.843 41.1147 124.15 40.456C123.474 39.7973 122.477 39.468 121.16 39.468C120.224 39.468 119.348 39.6327 118.534 39.962C117.736 40.274 117.052 40.6813 116.48 41.184L115.83 40.248C116.506 39.6413 117.32 39.1733 118.274 38.844C119.227 38.4973 120.224 38.324 121.264 38.324C122.945 38.324 124.236 38.7487 125.138 39.598C126.039 40.4473 126.49 41.7127 126.49 43.394V52H125.242ZM120.354 52.104C119.348 52.104 118.473 51.948 117.728 51.636C117 51.3067 116.436 50.8473 116.038 50.258C115.656 49.6687 115.466 48.9927 115.466 48.23C115.466 47.5367 115.622 46.9127 115.934 46.358C116.263 45.786 116.8 45.3267 117.546 44.98C118.291 44.616 119.288 44.434 120.536 44.434H125.528V45.448H120.562C119.158 45.448 118.17 45.708 117.598 46.228C117.043 46.748 116.766 47.398 116.766 48.178C116.766 49.0447 117.095 49.738 117.754 50.258C118.412 50.778 119.34 51.038 120.536 51.038C121.68 51.038 122.642 50.778 123.422 50.258C124.219 49.738 124.808 48.984 125.19 47.996L125.554 48.88C125.19 49.868 124.566 50.6567 123.682 51.246C122.815 51.818 121.706 52.104 120.354 52.104ZM137.072 52.104C135.807 52.104 134.663 51.818 133.64 51.246C132.635 50.6567 131.837 49.842 131.248 48.802C130.659 47.762 130.364 46.566 130.364 45.214C130.364 43.8447 130.659 42.6487 131.248 41.626C131.837 40.586 132.635 39.78 133.64 39.208C134.663 38.6187 135.807 38.324 137.072 38.324C138.268 38.324 139.343 38.6013 140.296 39.156C141.267 39.7107 142.029 40.4993 142.584 41.522C143.156 42.5447 143.442 43.7753 143.442 45.214C143.442 46.618 143.165 47.84 142.61 48.88C142.055 49.92 141.293 50.7173 140.322 51.272C139.369 51.8267 138.285 52.104 137.072 52.104ZM137.15 50.934C138.19 50.934 139.117 50.7 139.932 50.232C140.764 49.7467 141.414 49.0707 141.882 48.204C142.367 47.3373 142.61 46.3407 142.61 45.214C142.61 44.07 142.367 43.0733 141.882 42.224C141.414 41.3573 140.764 40.69 139.932 40.222C139.117 39.7367 138.19 39.494 137.15 39.494C136.11 39.494 135.174 39.7367 134.342 40.222C133.527 40.69 132.877 41.3573 132.392 42.224C131.924 43.0733 131.69 44.07 131.69 45.214C131.69 46.3407 131.924 47.3373 132.392 48.204C132.877 49.0707 133.527 49.7467 134.342 50.232C135.174 50.7 136.11 50.934 137.15 50.934ZM142.636 52V47.554L142.87 45.188L142.61 42.822V32.708H143.91V52H142.636ZM19.9259 84L28.2979 65.8H29.6239L37.9959 84H36.5659L28.6619 66.632H29.2339L21.3559 84H19.9259ZM22.9939 78.878L23.4359 77.76H34.3299L34.7719 78.878H22.9939ZM57.7839 70.324C58.8759 70.324 59.8206 70.5407 60.6179 70.974C61.4326 71.39 62.0653 72.0313 62.5159 72.898C62.9666 73.7473 63.1919 74.8047 63.1919 76.07V84H61.8919V76.174C61.8919 74.6487 61.5193 73.4873 60.7739 72.69C60.0286 71.8927 58.9886 71.494 57.6539 71.494C56.6313 71.494 55.7473 71.7107 55.0019 72.144C54.2566 72.5773 53.6846 73.184 53.2859 73.964C52.8873 74.744 52.6879 75.68 52.6879 76.772V84H51.3879V76.174C51.3879 74.6487 51.0153 73.4873 50.2699 72.69C49.5246 71.8927 48.4846 71.494 47.1499 71.494C46.1273 71.494 45.2433 71.7107 44.4979 72.144C43.7526 72.5773 43.1806 73.184 42.7819 73.964C42.3833 74.744 42.1839 75.68 42.1839 76.772V84H40.8839V70.428H42.1319V74.172L41.9499 73.756C42.3486 72.6987 43.0159 71.8667 43.9519 71.26C44.8879 70.636 46.0146 70.324 47.3319 70.324C48.6839 70.324 49.8193 70.6707 50.7379 71.364C51.6739 72.04 52.2633 73.054 52.5059 74.406L52.0639 74.224C52.4279 73.0627 53.1126 72.1267 54.1179 71.416C55.1233 70.688 56.3453 70.324 57.7839 70.324ZM75.3717 84.104C74.1757 84.104 73.0924 83.8267 72.1217 83.272C71.1684 82.7173 70.4057 81.9287 69.8337 80.906C69.279 79.866 69.0017 78.6353 69.0017 77.214C69.0017 75.7927 69.279 74.5707 69.8337 73.548C70.4057 72.508 71.1684 71.7107 72.1217 71.156C73.0924 70.6013 74.1757 70.324 75.3717 70.324C76.6544 70.324 77.7984 70.6187 78.8037 71.208C79.8264 71.78 80.6237 72.586 81.1957 73.626C81.785 74.666 82.0797 75.862 82.0797 77.214C82.0797 78.566 81.785 79.762 81.1957 80.802C80.6237 81.842 79.8264 82.6567 78.8037 83.246C77.7984 83.818 76.6544 84.104 75.3717 84.104ZM68.5597 89.044V70.428H69.8077V74.874L69.5997 77.24L69.8597 79.606V89.044H68.5597ZM75.2937 82.934C76.3337 82.934 77.2697 82.7 78.1017 82.232C78.9337 81.7467 79.5837 81.0707 80.0517 80.204C80.537 79.3373 80.7797 78.3407 80.7797 77.214C80.7797 76.07 80.537 75.0733 80.0517 74.224C79.5837 73.3573 78.9337 72.69 78.1017 72.222C77.2697 71.7367 76.3337 71.494 75.2937 71.494C74.2537 71.494 73.3177 71.7367 72.4857 72.222C71.671 72.69 71.021 73.3573 70.5357 74.224C70.0677 75.0733 69.8337 76.07 69.8337 77.214C69.8337 78.3407 70.0677 79.3373 70.5357 80.204C71.021 81.0707 71.671 81.7467 72.4857 82.232C73.3177 82.7 74.2537 82.934 75.2937 82.934ZM86.1046 84V64.708H87.4046V84H86.1046ZM92.8839 84V70.428H94.1839V84H92.8839ZM93.5339 67.126C93.2393 67.126 92.9879 67.022 92.7799 66.814C92.5719 66.606 92.4679 66.3633 92.4679 66.086C92.4679 65.7913 92.5719 65.54 92.7799 65.332C92.9879 65.124 93.2393 65.02 93.5339 65.02C93.8459 65.02 94.0973 65.124 94.2879 65.332C94.4959 65.5227 94.5999 65.7653 94.5999 66.06C94.5999 66.3547 94.4959 66.606 94.2879 66.814C94.0973 67.022 93.8459 67.126 93.5339 67.126ZM103.615 84.104C102.419 84.104 101.501 83.7747 100.859 83.116C100.235 82.4573 99.9232 81.556 99.9232 80.412V67.464H101.223V80.282C101.223 81.1487 101.44 81.816 101.873 82.284C102.307 82.752 102.931 82.986 103.745 82.986C104.595 82.986 105.297 82.7347 105.851 82.232L106.397 83.142C106.051 83.4713 105.626 83.714 105.123 83.87C104.638 84.026 104.135 84.104 103.615 84.104ZM97.4272 71.546V70.428H105.539V71.546H97.4272ZM115.535 84.104C114.373 84.104 113.368 83.896 112.519 83.48C111.669 83.0467 111.011 82.4053 110.543 81.556C110.092 80.6893 109.867 79.6233 109.867 78.358V70.428H111.167V78.254C111.167 79.7793 111.557 80.9407 112.337 81.738C113.117 82.5353 114.217 82.934 115.639 82.934C116.661 82.934 117.545 82.7173 118.291 82.284C119.036 81.8507 119.608 81.244 120.007 80.464C120.405 79.6667 120.605 78.7307 120.605 77.656V70.428H121.905V84H120.657V80.23L120.839 80.672C120.44 81.7293 119.773 82.57 118.837 83.194C117.918 83.8007 116.817 84.104 115.535 84.104ZM132.641 84.104C131.376 84.104 130.232 83.818 129.209 83.246C128.204 82.6567 127.407 81.842 126.817 80.802C126.228 79.762 125.933 78.566 125.933 77.214C125.933 75.8447 126.228 74.6487 126.817 73.626C127.407 72.586 128.204 71.78 129.209 71.208C130.232 70.6187 131.376 70.324 132.641 70.324C133.837 70.324 134.912 70.6013 135.865 71.156C136.836 71.7107 137.599 72.4993 138.153 73.522C138.725 74.5447 139.011 75.7753 139.011 77.214C139.011 78.618 138.734 79.84 138.179 80.88C137.625 81.92 136.862 82.7173 135.891 83.272C134.938 83.8267 133.855 84.104 132.641 84.104ZM132.719 82.934C133.759 82.934 134.687 82.7 135.501 82.232C136.333 81.7467 136.983 81.0707 137.451 80.204C137.937 79.3373 138.179 78.3407 138.179 77.214C138.179 76.07 137.937 75.0733 137.451 74.224C136.983 73.3573 136.333 72.69 135.501 72.222C134.687 71.7367 133.759 71.494 132.719 71.494C131.679 71.494 130.743 71.7367 129.911 72.222C129.097 72.69 128.447 73.3573 127.961 74.224C127.493 75.0733 127.259 76.07 127.259 77.214C127.259 78.3407 127.493 79.3373 127.961 80.204C128.447 81.0707 129.097 81.7467 129.911 82.232C130.743 82.7 131.679 82.934 132.719 82.934ZM138.205 84V79.554L138.439 77.188L138.179 74.822V64.708H139.479V84H138.205ZM27.9725 116.13C26.6205 116.13 25.3638 115.905 24.2025 115.454C23.0585 114.986 22.0618 114.336 21.2125 113.504C20.3632 112.672 19.7045 111.701 19.2365 110.592C18.7685 109.465 18.5345 108.235 18.5345 106.9C18.5345 105.565 18.7685 104.343 19.2365 103.234C19.7045 102.107 20.3632 101.128 21.2125 100.296C22.0792 99.464 23.0845 98.8227 24.2285 98.372C25.3725 97.904 26.6205 97.67 27.9725 97.67C29.2552 97.67 30.4512 97.878 31.5605 98.294C32.6872 98.71 33.6492 99.3427 34.4465 100.192L33.6145 101.05C32.8345 100.287 31.9678 99.7413 31.0145 99.412C30.0785 99.0653 29.0818 98.892 28.0245 98.892C26.8632 98.892 25.7798 99.0913 24.7745 99.49C23.7865 99.8887 22.9198 100.452 22.1745 101.18C21.4465 101.908 20.8745 102.757 20.4585 103.728C20.0598 104.699 19.8605 105.756 19.8605 106.9C19.8605 108.044 20.0598 109.101 20.4585 110.072C20.8745 111.043 21.4465 111.892 22.1745 112.62C22.9198 113.348 23.7865 113.911 24.7745 114.31C25.7798 114.709 26.8632 114.908 28.0245 114.908C29.0818 114.908 30.0785 114.743 31.0145 114.414C31.9678 114.067 32.8345 113.504 33.6145 112.724L34.4465 113.582C33.6492 114.431 32.6872 115.073 31.5605 115.506C30.4512 115.922 29.2552 116.13 27.9725 116.13ZM43.1411 116.104C41.8411 116.104 40.6797 115.809 39.6571 115.22C38.6517 114.631 37.8457 113.816 37.2391 112.776C36.6497 111.736 36.3551 110.549 36.3551 109.214C36.3551 107.862 36.6497 106.675 37.2391 105.652C37.8457 104.612 38.6517 103.797 39.6571 103.208C40.6797 102.619 41.8411 102.324 43.1411 102.324C44.4411 102.324 45.6024 102.619 46.6251 103.208C47.6477 103.797 48.4537 104.612 49.0431 105.652C49.6324 106.675 49.9271 107.862 49.9271 109.214C49.9271 110.549 49.6324 111.736 49.0431 112.776C48.4537 113.816 47.6477 114.631 46.6251 115.22C45.6024 115.809 44.4411 116.104 43.1411 116.104ZM43.1411 114.934C44.1811 114.934 45.1171 114.7 45.9491 114.232C46.7811 113.747 47.4311 113.071 47.8991 112.204C48.3671 111.337 48.6011 110.341 48.6011 109.214C48.6011 108.07 48.3671 107.073 47.8991 106.224C47.4311 105.357 46.7811 104.69 45.9491 104.222C45.1171 103.737 44.1811 103.494 43.1411 103.494C42.1011 103.494 41.1651 103.737 40.3331 104.222C39.5184 104.69 38.8684 105.357 38.3831 106.224C37.9151 107.073 37.6811 108.07 37.6811 109.214C37.6811 110.341 37.9151 111.337 38.3831 112.204C38.8684 113.071 39.5184 113.747 40.3331 114.232C41.1651 114.7 42.1011 114.934 43.1411 114.934ZM60.5901 102.324C61.6994 102.324 62.6614 102.541 63.4761 102.974C64.3081 103.39 64.9494 104.031 65.4001 104.898C65.8681 105.747 66.1021 106.805 66.1021 108.07V116H64.8021V108.174C64.8021 106.649 64.4121 105.487 63.6321 104.69C62.8694 103.893 61.7948 103.494 60.4081 103.494C59.3508 103.494 58.4321 103.711 57.6521 104.144C56.8721 104.577 56.2741 105.184 55.8581 105.964C55.4594 106.744 55.2601 107.68 55.2601 108.772V116H53.9601V102.428H55.2081V106.198L55.0261 105.782C55.4421 104.707 56.1268 103.867 57.0801 103.26C58.0334 102.636 59.2034 102.324 60.5901 102.324ZM71.7142 116V100.348C71.7142 99.2213 72.0349 98.32 72.6762 97.644C73.3349 96.9507 74.2709 96.604 75.4842 96.604C75.9869 96.604 76.4809 96.682 76.9662 96.838C77.4516 96.9767 77.8502 97.1933 78.1622 97.488L77.6422 98.476C77.3822 98.216 77.0702 98.0253 76.7062 97.904C76.3422 97.7827 75.9522 97.722 75.5362 97.722C74.7042 97.722 74.0716 97.956 73.6382 98.424C73.2049 98.8747 72.9882 99.5507 72.9882 100.452V102.74L73.0142 103.364V116H71.7142ZM69.2182 103.546V102.428H77.3302V103.546H69.2182ZM79.9822 116V102.428H81.2822V116H79.9822ZM80.6322 99.126C80.3376 99.126 80.0862 99.022 79.8782 98.814C79.6702 98.606 79.5662 98.3633 79.5662 98.086C79.5662 97.7913 79.6702 97.54 79.8782 97.332C80.0862 97.124 80.3376 97.02 80.6322 97.02C80.9442 97.02 81.1956 97.124 81.3862 97.332C81.5942 97.5227 81.6982 97.7653 81.6982 98.06C81.6982 98.3547 81.5942 98.606 81.3862 98.814C81.1956 99.022 80.9442 99.126 80.6322 99.126ZM95.3188 116V112.906L95.2668 112.438V107.342C95.2668 106.077 94.9201 105.115 94.2268 104.456C93.5508 103.797 92.5541 103.468 91.2368 103.468C90.3008 103.468 89.4255 103.633 88.6108 103.962C87.8135 104.274 87.1288 104.681 86.5568 105.184L85.9068 104.248C86.5828 103.641 87.3975 103.173 88.3508 102.844C89.3041 102.497 90.3008 102.324 91.3408 102.324C93.0221 102.324 94.3135 102.749 95.2148 103.598C96.1161 104.447 96.5668 105.713 96.5668 107.394V116H95.3188ZM90.4308 116.104C89.4255 116.104 88.5501 115.948 87.8048 115.636C87.0768 115.307 86.5135 114.847 86.1148 114.258C85.7335 113.669 85.5428 112.993 85.5428 112.23C85.5428 111.537 85.6988 110.913 86.0108 110.358C86.3401 109.786 86.8775 109.327 87.6228 108.98C88.3681 108.616 89.3648 108.434 90.6128 108.434H95.6048V109.448H90.6388C89.2348 109.448 88.2468 109.708 87.6748 110.228C87.1201 110.748 86.8428 111.398 86.8428 112.178C86.8428 113.045 87.1721 113.738 87.8308 114.258C88.4895 114.778 89.4168 115.038 90.6128 115.038C91.7568 115.038 92.7188 114.778 93.4988 114.258C94.2961 113.738 94.8855 112.984 95.2668 111.996L95.6308 112.88C95.2668 113.868 94.6428 114.657 93.7588 115.246C92.8921 115.818 91.7828 116.104 90.4308 116.104ZM108.553 102.324C109.662 102.324 110.624 102.541 111.439 102.974C112.271 103.39 112.912 104.031 113.363 104.898C113.831 105.747 114.065 106.805 114.065 108.07V116H112.765V108.174C112.765 106.649 112.375 105.487 111.595 104.69C110.832 103.893 109.758 103.494 108.371 103.494C107.314 103.494 106.395 103.711 105.615 104.144C104.835 104.577 104.237 105.184 103.821 105.964C103.422 106.744 103.223 107.68 103.223 108.772V116H101.923V102.428H103.171V106.198L102.989 105.782C103.405 104.707 104.09 103.867 105.043 103.26C105.996 102.636 107.166 102.324 108.553 102.324ZM117.805 116V115.116L127.087 103.104L127.425 103.546H117.935V102.428H128.439V103.312L119.131 115.324L118.741 114.882H128.595V116H117.805ZM141.047 116V112.906L140.995 112.438V107.342C140.995 106.077 140.649 105.115 139.955 104.456C139.279 103.797 138.283 103.468 136.965 103.468C136.029 103.468 135.154 103.633 134.339 103.962C133.542 104.274 132.857 104.681 132.285 105.184L131.635 104.248C132.311 103.641 133.126 103.173 134.079 102.844C135.033 102.497 136.029 102.324 137.069 102.324C138.751 102.324 140.042 102.749 140.943 103.598C141.845 104.447 142.295 105.713 142.295 107.394V116H141.047ZM136.159 116.104C135.154 116.104 134.279 115.948 133.533 115.636C132.805 115.307 132.242 114.847 131.843 114.258C131.462 113.669 131.271 112.993 131.271 112.23C131.271 111.537 131.427 110.913 131.739 110.358C132.069 109.786 132.606 109.327 133.351 108.98C134.097 108.616 135.093 108.434 136.341 108.434H141.333V109.448H136.367C134.963 109.448 133.975 109.708 133.403 110.228C132.849 110.748 132.571 111.398 132.571 112.178C132.571 113.045 132.901 113.738 133.559 114.258C134.218 114.778 135.145 115.038 136.341 115.038C137.485 115.038 138.447 114.778 139.227 114.258C140.025 113.738 140.614 112.984 140.995 111.996L141.359 112.88C140.995 113.868 140.371 114.657 139.487 115.246C138.621 115.818 137.511 116.104 136.159 116.104ZM23.3212 148.13C21.9692 148.13 20.6866 147.905 19.4732 147.454C18.2772 146.986 17.3499 146.388 16.6912 145.66L17.2892 144.672C17.9132 145.313 18.7626 145.859 19.8372 146.31C20.9292 146.743 22.0819 146.96 23.2952 146.96C24.5086 146.96 25.4966 146.804 26.2592 146.492C27.0392 146.163 27.6112 145.729 27.9752 145.192C28.3566 144.655 28.5472 144.057 28.5472 143.398C28.5472 142.618 28.3392 141.994 27.9232 141.526C27.5072 141.058 26.9612 140.685 26.2852 140.408C25.6092 140.131 24.8726 139.897 24.0752 139.706C23.2779 139.515 22.4719 139.316 21.6572 139.108C20.8426 138.883 20.0972 138.597 19.4212 138.25C18.7452 137.903 18.1992 137.435 17.7832 136.846C17.3846 136.239 17.1852 135.459 17.1852 134.506C17.1852 133.639 17.4106 132.842 17.8612 132.114C18.3119 131.386 19.0139 130.797 19.9672 130.346C20.9206 129.895 22.1426 129.67 23.6332 129.67C24.6386 129.67 25.6266 129.817 26.5972 130.112C27.5852 130.407 28.4259 130.805 29.1192 131.308L28.6252 132.374C27.8626 131.854 27.0392 131.473 26.1552 131.23C25.2886 130.97 24.4479 130.84 23.6332 130.84C22.4719 130.84 21.5099 131.005 20.7472 131.334C19.9846 131.663 19.4212 132.105 19.0572 132.66C18.6932 133.197 18.5112 133.804 18.5112 134.48C18.5112 135.26 18.7106 135.884 19.1092 136.352C19.5252 136.82 20.0712 137.193 20.7472 137.47C21.4232 137.747 22.1686 137.981 22.9832 138.172C23.7979 138.363 24.6039 138.571 25.4012 138.796C26.1986 139.004 26.9352 139.281 27.6112 139.628C28.2872 139.975 28.8332 140.443 29.2492 141.032C29.6652 141.621 29.8732 142.384 29.8732 143.32C29.8732 144.169 29.6392 144.967 29.1712 145.712C28.7032 146.44 27.9839 147.029 27.0132 147.48C26.0599 147.913 24.8292 148.13 23.3212 148.13ZM39.477 148.104C38.1077 148.104 36.8943 147.809 35.837 147.22C34.797 146.631 33.9737 145.816 33.367 144.776C32.7777 143.736 32.483 142.549 32.483 141.214C32.483 139.862 32.7603 138.675 33.315 137.652C33.887 136.612 34.667 135.797 35.655 135.208C36.643 134.619 37.7523 134.324 38.983 134.324C40.2137 134.324 41.3143 134.61 42.285 135.182C43.273 135.754 44.0443 136.56 44.599 137.6C45.171 138.623 45.457 139.81 45.457 141.162C45.457 141.214 45.4483 141.275 45.431 141.344C45.431 141.396 45.431 141.457 45.431 141.526H33.445V140.512H44.729L44.209 141.006C44.2263 139.949 44.001 139.004 43.533 138.172C43.0823 137.323 42.467 136.664 41.687 136.196C40.907 135.711 40.0057 135.468 38.983 135.468C37.9777 135.468 37.0763 135.711 36.279 136.196C35.499 136.664 34.8837 137.323 34.433 138.172C33.9823 139.004 33.757 139.957 33.757 141.032V141.266C33.757 142.375 33.9997 143.363 34.485 144.23C34.9877 145.079 35.6723 145.747 36.539 146.232C37.4057 146.7 38.3937 146.934 39.503 146.934C40.3697 146.934 41.1757 146.778 41.921 146.466C42.6837 146.154 43.325 145.677 43.845 145.036L44.599 145.894C44.0097 146.622 43.2643 147.177 42.363 147.558C41.479 147.922 40.517 148.104 39.477 148.104ZM49.4787 148V134.428H50.7267V138.146L50.5967 137.73C50.978 136.638 51.6193 135.797 52.5207 135.208C53.422 134.619 54.5487 134.324 55.9007 134.324V135.598C55.8487 135.598 55.7967 135.598 55.7447 135.598C55.6927 135.581 55.6407 135.572 55.5887 135.572C54.0807 135.572 52.902 136.049 52.0527 137.002C51.2033 137.938 50.7787 139.247 50.7787 140.928V148H49.4787ZM64.8676 148.104C63.4983 148.104 62.2849 147.809 61.2276 147.22C60.1876 146.631 59.3643 145.816 58.7576 144.776C58.1683 143.736 57.8736 142.549 57.8736 141.214C57.8736 139.862 58.1509 138.675 58.7056 137.652C59.2776 136.612 60.0576 135.797 61.0456 135.208C62.0336 134.619 63.1429 134.324 64.3736 134.324C65.6043 134.324 66.7049 134.61 67.6756 135.182C68.6636 135.754 69.4349 136.56 69.9896 137.6C70.5616 138.623 70.8476 139.81 70.8476 141.162C70.8476 141.214 70.8389 141.275 70.8216 141.344C70.8216 141.396 70.8216 141.457 70.8216 141.526H58.8356V140.512H70.1196L69.5996 141.006C69.6169 139.949 69.3916 139.004 68.9236 138.172C68.4729 137.323 67.8576 136.664 67.0776 136.196C66.2976 135.711 65.3963 135.468 64.3736 135.468C63.3683 135.468 62.4669 135.711 61.6696 136.196C60.8896 136.664 60.2743 137.323 59.8236 138.172C59.3729 139.004 59.1476 139.957 59.1476 141.032V141.266C59.1476 142.375 59.3903 143.363 59.8756 144.23C60.3783 145.079 61.0629 145.747 61.9296 146.232C62.7963 146.7 63.7843 146.934 64.8936 146.934C65.7603 146.934 66.5663 146.778 67.3116 146.466C68.0743 146.154 68.7156 145.677 69.2356 145.036L69.9896 145.894C69.4003 146.622 68.6549 147.177 67.7536 147.558C66.8696 147.922 65.9076 148.104 64.8676 148.104ZM81.4993 134.324C82.6086 134.324 83.5706 134.541 84.3853 134.974C85.2173 135.39 85.8586 136.031 86.3093 136.898C86.7773 137.747 87.0113 138.805 87.0113 140.07V148H85.7113V140.174C85.7113 138.649 85.3213 137.487 84.5413 136.69C83.7786 135.893 82.7039 135.494 81.3173 135.494C80.2599 135.494 79.3413 135.711 78.5613 136.144C77.7813 136.577 77.1833 137.184 76.7673 137.964C76.3686 138.744 76.1693 139.68 76.1693 140.772V148H74.8693V134.428H76.1173V138.198L75.9353 137.782C76.3513 136.707 77.0359 135.867 77.9893 135.26C78.9426 134.636 80.1126 134.324 81.4993 134.324ZM92.3634 148V134.428H93.6634V148H92.3634ZM93.0134 131.126C92.7188 131.126 92.4674 131.022 92.2594 130.814C92.0514 130.606 91.9474 130.363 91.9474 130.086C91.9474 129.791 92.0514 129.54 92.2594 129.332C92.4674 129.124 92.7188 129.02 93.0134 129.02C93.3254 129.02 93.5768 129.124 93.7674 129.332C93.9754 129.523 94.0794 129.765 94.0794 130.06C94.0794 130.355 93.9754 130.606 93.7674 130.814C93.5768 131.022 93.3254 131.126 93.0134 131.126ZM104.369 148.104C103.103 148.104 101.959 147.818 100.937 147.246C99.9314 146.657 99.1341 145.842 98.5447 144.802C97.9554 143.762 97.6607 142.566 97.6607 141.214C97.6607 139.845 97.9554 138.649 98.5447 137.626C99.1341 136.586 99.9314 135.78 100.937 135.208C101.959 134.619 103.103 134.324 104.369 134.324C105.565 134.324 106.639 134.601 107.593 135.156C108.563 135.711 109.326 136.499 109.881 137.522C110.453 138.545 110.739 139.775 110.739 141.214C110.739 142.618 110.461 143.84 109.907 144.88C109.352 145.92 108.589 146.717 107.619 147.272C106.665 147.827 105.582 148.104 104.369 148.104ZM104.447 146.934C105.487 146.934 106.414 146.7 107.229 146.232C108.061 145.747 108.711 145.071 109.179 144.204C109.664 143.337 109.907 142.341 109.907 141.214C109.907 140.07 109.664 139.073 109.179 138.224C108.711 137.357 108.061 136.69 107.229 136.222C106.414 135.737 105.487 135.494 104.447 135.494C103.407 135.494 102.471 135.737 101.639 136.222C100.824 136.69 100.174 137.357 99.6887 138.224C99.2207 139.073 98.9867 140.07 98.9867 141.214C98.9867 142.341 99.2207 143.337 99.6887 144.204C100.174 145.071 100.824 145.747 101.639 146.232C102.471 146.7 103.407 146.934 104.447 146.934ZM109.933 148V143.554L110.167 141.188L109.907 138.822V128.708H111.207V148H109.933ZM125.242 148V144.906L125.19 144.438V139.342C125.19 138.077 124.843 137.115 124.15 136.456C123.474 135.797 122.477 135.468 121.16 135.468C120.224 135.468 119.348 135.633 118.534 135.962C117.736 136.274 117.052 136.681 116.48 137.184L115.83 136.248C116.506 135.641 117.32 135.173 118.274 134.844C119.227 134.497 120.224 134.324 121.264 134.324C122.945 134.324 124.236 134.749 125.138 135.598C126.039 136.447 126.49 137.713 126.49 139.394V148H125.242ZM120.354 148.104C119.348 148.104 118.473 147.948 117.728 147.636C117 147.307 116.436 146.847 116.038 146.258C115.656 145.669 115.466 144.993 115.466 144.23C115.466 143.537 115.622 142.913 115.934 142.358C116.263 141.786 116.8 141.327 117.546 140.98C118.291 140.616 119.288 140.434 120.536 140.434H125.528V141.448H120.562C119.158 141.448 118.17 141.708 117.598 142.228C117.043 142.748 116.766 143.398 116.766 144.178C116.766 145.045 117.095 145.738 117.754 146.258C118.412 146.778 119.34 147.038 120.536 147.038C121.68 147.038 122.642 146.778 123.422 146.258C124.219 145.738 124.808 144.984 125.19 143.996L125.554 144.88C125.19 145.868 124.566 146.657 123.682 147.246C122.815 147.818 121.706 148.104 120.354 148.104ZM137.072 148.104C135.807 148.104 134.663 147.818 133.64 147.246C132.635 146.657 131.837 145.842 131.248 144.802C130.659 143.762 130.364 142.566 130.364 141.214C130.364 139.845 130.659 138.649 131.248 137.626C131.837 136.586 132.635 135.78 133.64 135.208C134.663 134.619 135.807 134.324 137.072 134.324C138.268 134.324 139.343 134.601 140.296 135.156C141.267 135.711 142.029 136.499 142.584 137.522C143.156 138.545 143.442 139.775 143.442 141.214C143.442 142.618 143.165 143.84 142.61 144.88C142.055 145.92 141.293 146.717 140.322 147.272C139.369 147.827 138.285 148.104 137.072 148.104ZM137.15 146.934C138.19 146.934 139.117 146.7 139.932 146.232C140.764 145.747 141.414 145.071 141.882 144.204C142.367 143.337 142.61 142.341 142.61 141.214C142.61 140.07 142.367 139.073 141.882 138.224C141.414 137.357 140.764 136.69 139.932 136.222C139.117 135.737 138.19 135.494 137.15 135.494C136.11 135.494 135.174 135.737 134.342 136.222C133.527 136.69 132.877 137.357 132.392 138.224C131.924 139.073 131.69 140.07 131.69 141.214C131.69 142.341 131.924 143.337 132.392 144.204C132.877 145.071 133.527 145.747 134.342 146.232C135.174 146.7 136.11 146.934 137.15 146.934ZM142.636 148V143.554L142.87 141.188L142.61 138.822V128.708H143.91V148H142.636ZM14.6453 180V162.996H8.09326V161.8H22.5233V162.996H15.9713V180H14.6453ZM29.4858 180.104C28.1164 180.104 26.9031 179.809 25.8458 179.22C24.8058 178.631 23.9824 177.816 23.3758 176.776C22.7864 175.736 22.4918 174.549 22.4918 173.214C22.4918 171.862 22.7691 170.675 23.3238 169.652C23.8958 168.612 24.6758 167.797 25.6638 167.208C26.6518 166.619 27.7611 166.324 28.9918 166.324C30.2224 166.324 31.3231 166.61 32.2938 167.182C33.2818 167.754 34.0531 168.56 34.6078 169.6C35.1798 170.623 35.4658 171.81 35.4658 173.162C35.4658 173.214 35.4571 173.275 35.4398 173.344C35.4398 173.396 35.4398 173.457 35.4398 173.526H23.4538V172.512H34.7378L34.2178 173.006C34.2351 171.949 34.0098 171.004 33.5418 170.172C33.0911 169.323 32.4758 168.664 31.6958 168.196C30.9158 167.711 30.0144 167.468 28.9918 167.468C27.9864 167.468 27.0851 167.711 26.2878 168.196C25.5078 168.664 24.8924 169.323 24.4418 170.172C23.9911 171.004 23.7658 171.957 23.7658 173.032V173.266C23.7658 174.375 24.0084 175.363 24.4938 176.23C24.9964 177.079 25.6811 177.747 26.5478 178.232C27.4144 178.7 28.4024 178.934 29.5118 178.934C30.3784 178.934 31.1844 178.778 31.9298 178.466C32.6924 178.154 33.3338 177.677 33.8538 177.036L34.6078 177.894C34.0184 178.622 33.2731 179.177 32.3718 179.558C31.4878 179.922 30.5258 180.104 29.4858 180.104ZM44.8694 180.104C43.5521 180.104 42.3734 179.809 41.3334 179.22C40.3108 178.631 39.4961 177.816 38.8894 176.776C38.3001 175.736 38.0054 174.549 38.0054 173.214C38.0054 171.862 38.3001 170.666 38.8894 169.626C39.4961 168.586 40.3108 167.78 41.3334 167.208C42.3734 166.619 43.5521 166.324 44.8694 166.324C45.9614 166.324 46.9494 166.532 47.8334 166.948C48.7348 167.364 49.4628 167.988 50.0174 168.82L49.0554 169.522C48.5701 168.829 47.9634 168.317 47.2354 167.988C46.5074 167.659 45.7188 167.494 44.8694 167.494C43.8121 167.494 42.8588 167.737 42.0094 168.222C41.1774 168.69 40.5188 169.357 40.0334 170.224C39.5654 171.073 39.3314 172.07 39.3314 173.214C39.3314 174.358 39.5654 175.363 40.0334 176.23C40.5188 177.079 41.1774 177.747 42.0094 178.232C42.8588 178.7 43.8121 178.934 44.8694 178.934C45.7188 178.934 46.5074 178.769 47.2354 178.44C47.9634 178.111 48.5701 177.599 49.0554 176.906L50.0174 177.608C49.4628 178.44 48.7348 179.064 47.8334 179.48C46.9494 179.896 45.9614 180.104 44.8694 180.104ZM60.5393 166.324C61.6487 166.324 62.6107 166.541 63.4253 166.974C64.2573 167.39 64.8987 168.031 65.3493 168.898C65.8173 169.747 66.0513 170.805 66.0513 172.07V180H64.7513V172.174C64.7513 170.649 64.3613 169.487 63.5813 168.69C62.8187 167.893 61.744 167.494 60.3573 167.494C59.3 167.494 58.3813 167.711 57.6013 168.144C56.8213 168.577 56.2233 169.184 55.8073 169.964C55.4087 170.744 55.2093 171.68 55.2093 172.772V180H53.9093V166.428H55.1573V170.198L54.9753 169.782C55.3913 168.707 56.076 167.867 57.0293 167.26C57.9827 166.636 59.1527 166.324 60.5393 166.324ZM76.7075 180.104C75.4075 180.104 74.2461 179.809 73.2235 179.22C72.2181 178.631 71.4121 177.816 70.8055 176.776C70.2161 175.736 69.9215 174.549 69.9215 173.214C69.9215 171.862 70.2161 170.675 70.8055 169.652C71.4121 168.612 72.2181 167.797 73.2235 167.208C74.2461 166.619 75.4075 166.324 76.7075 166.324C78.0075 166.324 79.1688 166.619 80.1915 167.208C81.2141 167.797 82.0201 168.612 82.6095 169.652C83.1988 170.675 83.4935 171.862 83.4935 173.214C83.4935 174.549 83.1988 175.736 82.6095 176.776C82.0201 177.816 81.2141 178.631 80.1915 179.22C79.1688 179.809 78.0075 180.104 76.7075 180.104ZM76.7075 178.934C77.7475 178.934 78.6835 178.7 79.5155 178.232C80.3475 177.747 80.9975 177.071 81.4655 176.204C81.9335 175.337 82.1675 174.341 82.1675 173.214C82.1675 172.07 81.9335 171.073 81.4655 170.224C80.9975 169.357 80.3475 168.69 79.5155 168.222C78.6835 167.737 77.7475 167.494 76.7075 167.494C75.6675 167.494 74.7315 167.737 73.8995 168.222C73.0848 168.69 72.4348 169.357 71.9495 170.224C71.4815 171.073 71.2475 172.07 71.2475 173.214C71.2475 174.341 71.4815 175.337 71.9495 176.204C72.4348 177.071 73.0848 177.747 73.8995 178.232C74.7315 178.7 75.6675 178.934 76.7075 178.934ZM87.5265 180V160.708H88.8265V180H87.5265ZM99.6098 180.104C98.3098 180.104 97.1485 179.809 96.1258 179.22C95.1205 178.631 94.3145 177.816 93.7078 176.776C93.1185 175.736 92.8238 174.549 92.8238 173.214C92.8238 171.862 93.1185 170.675 93.7078 169.652C94.3145 168.612 95.1205 167.797 96.1258 167.208C97.1485 166.619 98.3098 166.324 99.6098 166.324C100.91 166.324 102.071 166.619 103.094 167.208C104.116 167.797 104.922 168.612 105.512 169.652C106.101 170.675 106.396 171.862 106.396 173.214C106.396 174.549 106.101 175.736 105.512 176.776C104.922 177.816 104.116 178.631 103.094 179.22C102.071 179.809 100.91 180.104 99.6098 180.104ZM99.6098 178.934C100.65 178.934 101.586 178.7 102.418 178.232C103.25 177.747 103.9 177.071 104.368 176.204C104.836 175.337 105.07 174.341 105.07 173.214C105.07 172.07 104.836 171.073 104.368 170.224C103.9 169.357 103.25 168.69 102.418 168.222C101.586 167.737 100.65 167.494 99.6098 167.494C98.5698 167.494 97.6338 167.737 96.8018 168.222C95.9871 168.69 95.3371 169.357 94.8518 170.224C94.3838 171.073 94.1498 172.07 94.1498 173.214C94.1498 174.341 94.3838 175.337 94.8518 176.204C95.3371 177.071 95.9871 177.747 96.8018 178.232C97.6338 178.7 98.5698 178.934 99.6098 178.934ZM116.071 185.148C114.84 185.148 113.67 184.957 112.561 184.576C111.452 184.195 110.55 183.666 109.857 182.99L110.559 182.002C111.235 182.626 112.041 183.111 112.977 183.458C113.93 183.805 114.953 183.978 116.045 183.978C117.865 183.978 119.2 183.553 120.049 182.704C120.916 181.855 121.349 180.52 121.349 178.7V174.93L121.609 172.902L121.401 170.874V166.428H122.649V178.544C122.649 180.815 122.094 182.479 120.985 183.536C119.893 184.611 118.255 185.148 116.071 185.148ZM115.707 179.506C114.424 179.506 113.272 179.229 112.249 178.674C111.244 178.102 110.438 177.322 109.831 176.334C109.242 175.329 108.947 174.185 108.947 172.902C108.947 171.602 109.242 170.458 109.831 169.47C110.438 168.482 111.244 167.711 112.249 167.156C113.272 166.601 114.424 166.324 115.707 166.324C116.938 166.324 118.038 166.593 119.009 167.13C119.997 167.65 120.777 168.404 121.349 169.392C121.921 170.363 122.207 171.533 122.207 172.902C122.207 174.254 121.921 175.424 121.349 176.412C120.777 177.4 119.997 178.163 119.009 178.7C118.038 179.237 116.938 179.506 115.707 179.506ZM115.811 178.336C116.903 178.336 117.865 178.111 118.697 177.66C119.529 177.192 120.179 176.551 120.647 175.736C121.132 174.904 121.375 173.959 121.375 172.902C121.375 171.827 121.132 170.883 120.647 170.068C120.179 169.253 119.529 168.621 118.697 168.17C117.865 167.719 116.903 167.494 115.811 167.494C114.754 167.494 113.8 167.719 112.951 168.17C112.119 168.621 111.46 169.253 110.975 170.068C110.507 170.883 110.273 171.827 110.273 172.902C110.273 173.959 110.507 174.904 110.975 175.736C111.46 176.551 112.119 177.192 112.951 177.66C113.8 178.111 114.754 178.336 115.811 178.336ZM128.152 180V166.428H129.452V180H128.152ZM127.32 164.218L130.934 161.15H132.806L128.724 164.218H127.32ZM143.485 180V176.906L143.433 176.438V171.342C143.433 170.077 143.086 169.115 142.393 168.456C141.717 167.797 140.72 167.468 139.403 167.468C138.467 167.468 137.591 167.633 136.777 167.962C135.979 168.274 135.295 168.681 134.723 169.184L134.073 168.248C134.749 167.641 135.563 167.173 136.517 166.844C137.47 166.497 138.467 166.324 139.507 166.324C141.188 166.324 142.479 166.749 143.381 167.598C144.282 168.447 144.733 169.713 144.733 171.394V180H143.485ZM138.597 180.104C137.591 180.104 136.716 179.948 135.971 179.636C135.243 179.307 134.679 178.847 134.281 178.258C133.899 177.669 133.709 176.993 133.709 176.23C133.709 175.537 133.865 174.913 134.177 174.358C134.506 173.786 135.043 173.327 135.789 172.98C136.534 172.616 137.531 172.434 138.779 172.434H143.771V173.448H138.805C137.401 173.448 136.413 173.708 135.841 174.228C135.286 174.748 135.009 175.398 135.009 176.178C135.009 177.045 135.338 177.738 135.997 178.258C136.655 178.778 137.583 179.038 138.779 179.038C139.923 179.038 140.885 178.778 141.665 178.258C142.462 177.738 143.051 176.984 143.433 175.996L143.797 176.88C143.433 177.868 142.809 178.657 141.925 179.246C141.058 179.818 139.949 180.104 138.597 180.104ZM4.88977 212V193.8H6.00777L14.4578 208.386H13.8598L22.2838 193.8H23.3758L23.4018 212H22.1018L22.0758 195.802H22.4398L14.4578 209.582H13.8078L5.79977 195.802H6.18977V212H4.88977ZM34.6352 212.104C33.3352 212.104 32.1739 211.809 31.1512 211.22C30.1459 210.631 29.3399 209.816 28.7332 208.776C28.1439 207.736 27.8492 206.549 27.8492 205.214C27.8492 203.862 28.1439 202.675 28.7332 201.652C29.3399 200.612 30.1459 199.797 31.1512 199.208C32.1739 198.619 33.3352 198.324 34.6352 198.324C35.9352 198.324 37.0965 198.619 38.1192 199.208C39.1419 199.797 39.9479 200.612 40.5372 201.652C41.1265 202.675 41.4212 203.862 41.4212 205.214C41.4212 206.549 41.1265 207.736 40.5372 208.776C39.9479 209.816 39.1419 210.631 38.1192 211.22C37.0965 211.809 35.9352 212.104 34.6352 212.104ZM34.6352 210.934C35.6752 210.934 36.6112 210.7 37.4432 210.232C38.2752 209.747 38.9252 209.071 39.3932 208.204C39.8612 207.337 40.0952 206.341 40.0952 205.214C40.0952 204.07 39.8612 203.073 39.3932 202.224C38.9252 201.357 38.2752 200.69 37.4432 200.222C36.6112 199.737 35.6752 199.494 34.6352 199.494C33.5952 199.494 32.6592 199.737 31.8272 200.222C31.0125 200.69 30.3625 201.357 29.8772 202.224C29.4092 203.073 29.1752 204.07 29.1752 205.214C29.1752 206.341 29.4092 207.337 29.8772 208.204C30.3625 209.071 31.0125 209.747 31.8272 210.232C32.6592 210.7 33.5952 210.934 34.6352 210.934ZM50.6802 212.104C49.4149 212.104 48.2709 211.818 47.2482 211.246C46.2429 210.657 45.4456 209.842 44.8562 208.802C44.2669 207.762 43.9722 206.566 43.9722 205.214C43.9722 203.845 44.2669 202.649 44.8562 201.626C45.4456 200.586 46.2429 199.78 47.2482 199.208C48.2709 198.619 49.4149 198.324 50.6802 198.324C51.8762 198.324 52.9509 198.601 53.9042 199.156C54.8749 199.711 55.6376 200.499 56.1922 201.522C56.7642 202.545 57.0502 203.775 57.0502 205.214C57.0502 206.618 56.7729 207.84 56.2182 208.88C55.6636 209.92 54.9009 210.717 53.9302 211.272C52.9769 211.827 51.8936 212.104 50.6802 212.104ZM50.7582 210.934C51.7982 210.934 52.7256 210.7 53.5402 210.232C54.3722 209.747 55.0222 209.071 55.4902 208.204C55.9756 207.337 56.2182 206.341 56.2182 205.214C56.2182 204.07 55.9756 203.073 55.4902 202.224C55.0222 201.357 54.3722 200.69 53.5402 200.222C52.7256 199.737 51.7982 199.494 50.7582 199.494C49.7182 199.494 48.7822 199.737 47.9502 200.222C47.1356 200.69 46.4856 201.357 46.0002 202.224C45.5322 203.073 45.2982 204.07 45.2982 205.214C45.2982 206.341 45.5322 207.337 46.0002 208.204C46.4856 209.071 47.1356 209.747 47.9502 210.232C48.7822 210.7 49.7182 210.934 50.7582 210.934ZM56.2442 212V207.554L56.4782 205.188L56.2182 202.822V192.708H57.5182V212H56.2442ZM68.5112 212.104C67.1418 212.104 65.9285 211.809 64.8712 211.22C63.8312 210.631 63.0078 209.816 62.4012 208.776C61.8118 207.736 61.5172 206.549 61.5172 205.214C61.5172 203.862 61.7945 202.675 62.3492 201.652C62.9212 200.612 63.7012 199.797 64.6892 199.208C65.6772 198.619 66.7865 198.324 68.0172 198.324C69.2478 198.324 70.3485 198.61 71.3192 199.182C72.3072 199.754 73.0785 200.56 73.6332 201.6C74.2052 202.623 74.4912 203.81 74.4912 205.162C74.4912 205.214 74.4825 205.275 74.4652 205.344C74.4652 205.396 74.4652 205.457 74.4652 205.526H62.4792V204.512H73.7632L73.2432 205.006C73.2605 203.949 73.0352 203.004 72.5672 202.172C72.1165 201.323 71.5012 200.664 70.7212 200.196C69.9412 199.711 69.0398 199.468 68.0172 199.468C67.0118 199.468 66.1105 199.711 65.3132 200.196C64.5332 200.664 63.9178 201.323 63.4672 202.172C63.0165 203.004 62.7912 203.957 62.7912 205.032V205.266C62.7912 206.375 63.0338 207.363 63.5192 208.23C64.0218 209.079 64.7065 209.747 65.5732 210.232C66.4398 210.7 67.4278 210.934 68.5372 210.934C69.4038 210.934 70.2098 210.778 70.9552 210.466C71.7178 210.154 72.3592 209.677 72.8792 209.036L73.6332 209.894C73.0438 210.622 72.2985 211.177 71.3972 211.558C70.5132 211.922 69.5512 212.104 68.5112 212.104ZM78.5128 212V198.428H79.7608V202.146L79.6308 201.73C80.0122 200.638 80.6535 199.797 81.5548 199.208C82.4562 198.619 83.5828 198.324 84.9348 198.324V199.598C84.8828 199.598 84.8308 199.598 84.7788 199.598C84.7268 199.581 84.6748 199.572 84.6228 199.572C83.1148 199.572 81.9362 200.049 81.0868 201.002C80.2375 201.938 79.8128 203.247 79.8128 204.928V212H78.5128ZM95.1467 198.324C96.2561 198.324 97.2181 198.541 98.0327 198.974C98.8647 199.39 99.5061 200.031 99.9567 200.898C100.425 201.747 100.659 202.805 100.659 204.07V212H99.3587V204.174C99.3587 202.649 98.9687 201.487 98.1887 200.69C97.4261 199.893 96.3514 199.494 94.9647 199.494C93.9074 199.494 92.9887 199.711 92.2087 200.144C91.4287 200.577 90.8307 201.184 90.4147 201.964C90.0161 202.744 89.8167 203.68 89.8167 204.772V212H88.5167V198.428H89.7647V202.198L89.5827 201.782C89.9987 200.707 90.6834 199.867 91.6367 199.26C92.5901 198.636 93.7601 198.324 95.1467 198.324ZM106.011 212V198.428H107.311V212H106.011ZM106.661 195.126C106.366 195.126 106.115 195.022 105.907 194.814C105.699 194.606 105.595 194.363 105.595 194.086C105.595 193.791 105.699 193.54 105.907 193.332C106.115 193.124 106.366 193.02 106.661 193.02C106.973 193.02 107.224 193.124 107.415 193.332C107.623 193.523 107.727 193.765 107.727 194.06C107.727 194.355 107.623 194.606 107.415 194.814C107.224 195.022 106.973 195.126 106.661 195.126ZM118.016 212.104C116.751 212.104 115.607 211.818 114.584 211.246C113.579 210.657 112.782 209.842 112.192 208.802C111.603 207.762 111.308 206.566 111.308 205.214C111.308 203.845 111.603 202.649 112.192 201.626C112.782 200.586 113.579 199.78 114.584 199.208C115.607 198.619 116.751 198.324 118.016 198.324C119.212 198.324 120.287 198.601 121.24 199.156C122.211 199.711 122.974 200.499 123.528 201.522C124.1 202.545 124.386 203.775 124.386 205.214C124.386 206.618 124.109 207.84 123.554 208.88C123 209.92 122.237 210.717 121.266 211.272C120.313 211.827 119.23 212.104 118.016 212.104ZM118.094 210.934C119.134 210.934 120.062 210.7 120.876 210.232C121.708 209.747 122.358 209.071 122.826 208.204C123.312 207.337 123.554 206.341 123.554 205.214C123.554 204.07 123.312 203.073 122.826 202.224C122.358 201.357 121.708 200.69 120.876 200.222C120.062 199.737 119.134 199.494 118.094 199.494C117.054 199.494 116.118 199.737 115.286 200.222C114.472 200.69 113.822 201.357 113.336 202.224C112.868 203.073 112.634 204.07 112.634 205.214C112.634 206.341 112.868 207.337 113.336 208.204C113.822 209.071 114.472 209.747 115.286 210.232C116.118 210.7 117.054 210.934 118.094 210.934ZM123.58 212V207.554L123.814 205.188L123.554 202.822V192.708H124.854V212H123.58ZM138.889 212V208.906L138.837 208.438V203.342C138.837 202.077 138.49 201.115 137.797 200.456C137.121 199.797 136.124 199.468 134.807 199.468C133.871 199.468 132.996 199.633 132.181 199.962C131.384 200.274 130.699 200.681 130.127 201.184L129.477 200.248C130.153 199.641 130.968 199.173 131.921 198.844C132.874 198.497 133.871 198.324 134.911 198.324C136.592 198.324 137.884 198.749 138.785 199.598C139.686 200.447 140.137 201.713 140.137 203.394V212H138.889ZM134.001 212.104C132.996 212.104 132.12 211.948 131.375 211.636C130.647 211.307 130.084 210.847 129.685 210.258C129.304 209.669 129.113 208.993 129.113 208.23C129.113 207.537 129.269 206.913 129.581 206.358C129.91 205.786 130.448 205.327 131.193 204.98C131.938 204.616 132.935 204.434 134.183 204.434H139.175V205.448H134.209C132.805 205.448 131.817 205.708 131.245 206.228C130.69 206.748 130.413 207.398 130.413 208.178C130.413 209.045 130.742 209.738 131.401 210.258C132.06 210.778 132.987 211.038 134.183 211.038C135.327 211.038 136.289 210.778 137.069 210.258C137.866 209.738 138.456 208.984 138.837 207.996L139.201 208.88C138.837 209.868 138.213 210.657 137.329 211.246C136.462 211.818 135.353 212.104 134.001 212.104ZM150.719 212.104C149.454 212.104 148.31 211.818 147.287 211.246C146.282 210.657 145.485 209.842 144.895 208.802C144.306 207.762 144.011 206.566 144.011 205.214C144.011 203.845 144.306 202.649 144.895 201.626C145.485 200.586 146.282 199.78 147.287 199.208C148.31 198.619 149.454 198.324 150.719 198.324C151.915 198.324 152.99 198.601 153.943 199.156C154.914 199.711 155.677 200.499 156.231 201.522C156.803 202.545 157.089 203.775 157.089 205.214C157.089 206.618 156.812 207.84 156.257 208.88C155.703 209.92 154.94 210.717 153.969 211.272C153.016 211.827 151.933 212.104 150.719 212.104ZM150.797 210.934C151.837 210.934 152.765 210.7 153.579 210.232C154.411 209.747 155.061 209.071 155.529 208.204C156.015 207.337 156.257 206.341 156.257 205.214C156.257 204.07 156.015 203.073 155.529 202.224C155.061 201.357 154.411 200.69 153.579 200.222C152.765 199.737 151.837 199.494 150.797 199.494C149.757 199.494 148.821 199.737 147.989 200.222C147.175 200.69 146.525 201.357 146.039 202.224C145.571 203.073 145.337 204.07 145.337 205.214C145.337 206.341 145.571 207.337 146.039 208.204C146.525 209.071 147.175 209.747 147.989 210.232C148.821 210.7 149.757 210.934 150.797 210.934ZM156.283 212V207.554L156.517 205.188L156.257 202.822V192.708H157.557V212H156.283Z" fill="black"/>
</svg>
