<svg width="131" height="60" viewBox="0 0 131 60" fill="none" xmlns="http://www.w3.org/2000/svg">
<path d="M14.3538 10.66H25.7238V12.01H14.3538V10.66ZM14.5338 20.62H27.4938V22H13.0038V0.999999H27.0438V2.38H14.5338V20.62ZM40.2421 6.22C41.5221 6.22 42.6321 6.47 43.5721 6.97C44.5321 7.45 45.2721 8.19 45.7921 9.19C46.3321 10.17 46.6021 11.39 46.6021 12.85V22H45.1021V12.97C45.1021 11.21 44.6521 9.87 43.7521 8.95C42.8721 8.03 41.6321 7.57 40.0321 7.57C38.8121 7.57 37.7521 7.82 36.8521 8.32C35.9521 8.82 35.2621 9.52 34.7821 10.42C34.3221 11.32 34.0921 12.4 34.0921 13.66V22H32.5921V6.34H34.0321V10.69L33.8221 10.21C34.3021 8.97 35.0921 8 36.1921 7.3C37.2921 6.58 38.6421 6.22 40.2421 6.22ZM59.1377 22.12C57.5577 22.12 56.1577 21.78 54.9377 21.1C53.7377 20.42 52.7877 19.48 52.0877 18.28C51.4077 17.08 51.0677 15.71 51.0677 14.17C51.0677 12.61 51.3877 11.24 52.0277 10.06C52.6877 8.86 53.5877 7.92 54.7277 7.24C55.8677 6.56 57.1477 6.22 58.5677 6.22C59.9877 6.22 61.2577 6.55 62.3777 7.21C63.5177 7.87 64.4077 8.8 65.0477 10C65.7077 11.18 66.0377 12.55 66.0377 14.11C66.0377 14.17 66.0277 14.24 66.0077 14.32C66.0077 14.38 66.0077 14.45 66.0077 14.53H52.1777V13.36H65.1977L64.5977 13.93C64.6177 12.71 64.3577 11.62 63.8177 10.66C63.2977 9.68 62.5877 8.92 61.6877 8.38C60.7877 7.82 59.7477 7.54 58.5677 7.54C57.4077 7.54 56.3677 7.82 55.4477 8.38C54.5477 8.92 53.8377 9.68 53.3177 10.66C52.7977 11.62 52.5377 12.72 52.5377 13.96V14.23C52.5377 15.51 52.8177 16.65 53.3777 17.65C53.9577 18.63 54.7477 19.4 55.7477 19.96C56.7477 20.5 57.8877 20.77 59.1677 20.77C60.1677 20.77 61.0977 20.59 61.9577 20.23C62.8377 19.87 63.5777 19.32 64.1777 18.58L65.0477 19.57C64.3677 20.41 63.5077 21.05 62.4677 21.49C61.4477 21.91 60.3377 22.12 59.1377 22.12ZM70.678 22V6.34H72.118V10.63L71.968 10.15C72.408 8.89 73.148 7.92 74.188 7.24C75.228 6.56 76.528 6.22 78.088 6.22V7.69C78.028 7.69 77.968 7.69 77.908 7.69C77.848 7.67 77.788 7.66 77.728 7.66C75.988 7.66 74.628 8.21 73.648 9.31C72.668 10.39 72.178 11.9 72.178 13.84V22H70.678ZM88.5845 27.94C87.1645 27.94 85.8145 27.72 84.5345 27.28C83.2545 26.84 82.2145 26.23 81.4145 25.45L82.2245 24.31C83.0045 25.03 83.9345 25.59 85.0145 25.99C86.1145 26.39 87.2945 26.59 88.5545 26.59C90.6545 26.59 92.1945 26.1 93.1745 25.12C94.1745 24.14 94.6745 22.6 94.6745 20.5V16.15L94.9745 13.81L94.7345 11.47V6.34H96.1745V20.32C96.1745 22.94 95.5345 24.86 94.2545 26.08C92.9945 27.32 91.1045 27.94 88.5845 27.94ZM88.1645 21.43C86.6845 21.43 85.3545 21.11 84.1745 20.47C83.0145 19.81 82.0845 18.91 81.3845 17.77C80.7045 16.61 80.3645 15.29 80.3645 13.81C80.3645 12.31 80.7045 10.99 81.3845 9.85C82.0845 8.71 83.0145 7.82 84.1745 7.18C85.3545 6.54 86.6845 6.22 88.1645 6.22C89.5845 6.22 90.8545 6.53 91.9745 7.15C93.1145 7.75 94.0145 8.62 94.6745 9.76C95.3345 10.88 95.6645 12.23 95.6645 13.81C95.6645 15.37 95.3345 16.72 94.6745 17.86C94.0145 19 93.1145 19.88 91.9745 20.5C90.8545 21.12 89.5845 21.43 88.1645 21.43ZM88.2845 20.08C89.5445 20.08 90.6545 19.82 91.6145 19.3C92.5745 18.76 93.3245 18.02 93.8645 17.08C94.4245 16.12 94.7045 15.03 94.7045 13.81C94.7045 12.57 94.4245 11.48 93.8645 10.54C93.3245 9.6 92.5745 8.87 91.6145 8.35C90.6545 7.83 89.5445 7.57 88.2845 7.57C87.0645 7.57 85.9645 7.83 84.9845 8.35C84.0245 8.87 83.2645 9.6 82.7045 10.54C82.1645 11.48 81.8945 12.57 81.8945 13.81C81.8945 15.03 82.1645 16.12 82.7045 17.08C83.2645 18.02 84.0245 18.76 84.9845 19.3C85.9645 19.82 87.0645 20.08 88.2845 20.08ZM102.524 22V6.34H104.024V22H102.524ZM101.564 3.79L105.734 0.249999H107.894L103.184 3.79H101.564ZM120.216 22V18.43L120.156 17.89V12.01C120.156 10.55 119.756 9.44 118.956 8.68C118.176 7.92 117.026 7.54 115.506 7.54C114.426 7.54 113.416 7.73 112.476 8.11C111.556 8.47 110.766 8.94 110.106 9.52L109.356 8.44C110.136 7.74 111.076 7.2 112.176 6.82C113.276 6.42 114.426 6.22 115.626 6.22C117.566 6.22 119.056 6.71 120.096 7.69C121.136 8.67 121.656 10.13 121.656 12.07V22H120.216ZM114.576 22.12C113.416 22.12 112.406 21.94 111.546 21.58C110.706 21.2 110.056 20.67 109.596 19.99C109.156 19.31 108.936 18.53 108.936 17.65C108.936 16.85 109.116 16.13 109.476 15.49C109.856 14.83 110.476 14.3 111.336 13.9C112.196 13.48 113.346 13.27 114.786 13.27H120.546V14.44H114.816C113.196 14.44 112.056 14.74 111.396 15.34C110.756 15.94 110.436 16.69 110.436 17.59C110.436 18.59 110.816 19.39 111.576 19.99C112.336 20.59 113.406 20.89 114.786 20.89C116.106 20.89 117.216 20.59 118.116 19.99C119.036 19.39 119.716 18.52 120.156 17.38L120.576 18.4C120.156 19.54 119.436 20.45 118.416 21.13C117.416 21.79 116.136 22.12 114.576 22.12ZM0.279883 59L9.93988 38H11.4699L21.1299 59H19.4799L10.3599 38.96H11.0199L1.92988 59H0.279883ZM3.81988 53.09L4.32988 51.8H16.8999L17.4099 53.09H3.81988ZM27.6312 59L20.5812 43.34H22.1712L28.7712 58.16H28.0512L34.7112 43.34H36.2412L29.1612 59H27.6312ZM45.4414 59.12C43.8614 59.12 42.4614 58.78 41.2414 58.1C40.0414 57.42 39.0914 56.48 38.3914 55.28C37.7114 54.08 37.3714 52.71 37.3714 51.17C37.3714 49.61 37.6914 48.24 38.3314 47.06C38.9914 45.86 39.8914 44.92 41.0314 44.24C42.1714 43.56 43.4514 43.22 44.8714 43.22C46.2914 43.22 47.5614 43.55 48.6814 44.21C49.8214 44.87 50.7114 45.8 51.3514 47C52.0114 48.18 52.3414 49.55 52.3414 51.11C52.3414 51.17 52.3314 51.24 52.3114 51.32C52.3114 51.38 52.3114 51.45 52.3114 51.53H38.4814V50.36H51.5014L50.9014 50.93C50.9214 49.71 50.6614 48.62 50.1214 47.66C49.6014 46.68 48.8914 45.92 47.9914 45.38C47.0914 44.82 46.0514 44.54 44.8714 44.54C43.7114 44.54 42.6714 44.82 41.7514 45.38C40.8514 45.92 40.1414 46.68 39.6214 47.66C39.1014 48.62 38.8414 49.72 38.8414 50.96V51.23C38.8414 52.51 39.1214 53.65 39.6814 54.65C40.2614 55.63 41.0514 56.4 42.0514 56.96C43.0514 57.5 44.1914 57.77 45.4714 57.77C46.4714 57.77 47.4014 57.59 48.2614 57.23C49.1414 56.87 49.8814 56.32 50.4814 55.58L51.3514 56.57C50.6714 57.41 49.8114 58.05 48.7714 58.49C47.7514 58.91 46.6414 59.12 45.4414 59.12ZM64.6318 43.22C65.9118 43.22 67.0218 43.47 67.9618 43.97C68.9218 44.45 69.6618 45.19 70.1818 46.19C70.7218 47.17 70.9918 48.39 70.9918 49.85V59H69.4918V49.97C69.4918 48.21 69.0418 46.87 68.1418 45.95C67.2618 45.03 66.0218 44.57 64.4218 44.57C63.2018 44.57 62.1418 44.82 61.2418 45.32C60.3418 45.82 59.6518 46.52 59.1718 47.42C58.7118 48.32 58.4818 49.4 58.4818 50.66V59H56.9818V43.34H58.4218V47.69L58.2118 47.21C58.6918 45.97 59.4818 45 60.5818 44.3C61.6818 43.58 63.0318 43.22 64.6318 43.22ZM81.7273 59.12C80.3473 59.12 79.2873 58.74 78.5473 57.98C77.8273 57.22 77.4673 56.18 77.4673 54.86V39.92H78.9673V54.71C78.9673 55.71 79.2173 56.48 79.7173 57.02C80.2173 57.56 80.9373 57.83 81.8773 57.83C82.8573 57.83 83.6673 57.54 84.3073 56.96L84.9373 58.01C84.5373 58.39 84.0473 58.67 83.4673 58.85C82.9073 59.03 82.3273 59.12 81.7273 59.12ZM74.5873 44.63V43.34H83.9473V44.63H74.5873ZM95.4804 59.12C94.1404 59.12 92.9804 58.88 92.0004 58.4C91.0204 57.9 90.2604 57.16 89.7204 56.18C89.2004 55.18 88.9404 53.95 88.9404 52.49V43.34H90.4404V52.37C90.4404 54.13 90.8904 55.47 91.7904 56.39C92.6904 57.31 93.9604 57.77 95.6004 57.77C96.7804 57.77 97.8004 57.52 98.6604 57.02C99.5204 56.52 100.18 55.82 100.64 54.92C101.1 54 101.33 52.92 101.33 51.68V43.34H102.83V59H101.39V54.65L101.6 55.16C101.14 56.38 100.37 57.35 99.2904 58.07C98.2304 58.77 96.9604 59.12 95.4804 59.12ZM109.189 59V43.34H110.629V47.63L110.479 47.15C110.919 45.89 111.659 44.92 112.699 44.24C113.739 43.56 115.039 43.22 116.599 43.22V44.69C116.539 44.69 116.479 44.69 116.419 44.69C116.359 44.67 116.299 44.66 116.239 44.66C114.499 44.66 113.139 45.21 112.159 46.31C111.179 47.39 110.689 48.9 110.689 50.84V59H109.189ZM129.43 59V55.43L129.37 54.89V49.01C129.37 47.55 128.97 46.44 128.17 45.68C127.39 44.92 126.24 44.54 124.72 44.54C123.64 44.54 122.63 44.73 121.69 45.11C120.77 45.47 119.98 45.94 119.32 46.52L118.57 45.44C119.35 44.74 120.29 44.2 121.39 43.82C122.49 43.42 123.64 43.22 124.84 43.22C126.78 43.22 128.27 43.71 129.31 44.69C130.35 45.67 130.87 47.13 130.87 49.07V59H129.43ZM123.79 59.12C122.63 59.12 121.62 58.94 120.76 58.58C119.92 58.2 119.27 57.67 118.81 56.99C118.37 56.31 118.15 55.53 118.15 54.65C118.15 53.85 118.33 53.13 118.69 52.49C119.07 51.83 119.69 51.3 120.55 50.9C121.41 50.48 122.56 50.27 124 50.27H129.76V51.44H124.03C122.41 51.44 121.27 51.74 120.61 52.34C119.97 52.94 119.65 53.69 119.65 54.59C119.65 55.59 120.03 56.39 120.79 56.99C121.55 57.59 122.62 57.89 124 57.89C125.32 57.89 126.43 57.59 127.33 56.99C128.25 56.39 128.93 55.52 129.37 54.38L129.79 55.4C129.37 56.54 128.65 57.45 127.63 58.13C126.63 58.79 125.35 59.12 123.79 59.12Z" fill="black"/>
</svg>
