<svg width="147" height="97" viewBox="0 0 147 97" fill="none" xmlns="http://www.w3.org/2000/svg">
<path d="M10.9509 22.15C9.39086 22.15 7.94086 21.89 6.60086 21.37C5.28086 20.83 4.12086 20.08 3.12086 19.12C2.14086 18.14 1.38086 17.01 0.840859 15.73C0.300859 14.43 0.0308595 13.02 0.0308595 11.5C0.0308595 9.98 0.300859 8.58 0.840859 7.3C1.38086 6 2.14086 4.87 3.12086 3.91C4.12086 2.93 5.28086 2.18 6.60086 1.66C7.94086 1.12 9.39086 0.849999 10.9509 0.849999C12.5109 0.849999 13.9509 1.12 15.2709 1.66C16.6109 2.18 17.7709 2.92 18.7509 3.88C19.7309 4.84 20.4909 5.97 21.0309 7.27C21.5909 8.55 21.8709 9.96 21.8709 11.5C21.8709 13.04 21.5909 14.46 21.0309 15.76C20.4909 17.04 19.7309 18.16 18.7509 19.12C17.7709 20.08 16.6109 20.83 15.2709 21.37C13.9509 21.89 12.5109 22.15 10.9509 22.15ZM10.9509 20.74C12.2909 20.74 13.5309 20.51 14.6709 20.05C15.8109 19.59 16.8009 18.94 17.6409 18.1C18.4809 17.26 19.1309 16.28 19.5909 15.16C20.0709 14.04 20.3109 12.82 20.3109 11.5C20.3109 10.16 20.0709 8.94 19.5909 7.84C19.1309 6.72 18.4809 5.74 17.6409 4.9C16.8009 4.06 15.8109 3.41 14.6709 2.95C13.5309 2.49 12.2909 2.26 10.9509 2.26C9.61086 2.26 8.37086 2.49 7.23086 2.95C6.09086 3.41 5.09086 4.06 4.23086 4.9C3.39086 5.74 2.73086 6.72 2.25086 7.84C1.79086 8.94 1.56086 10.16 1.56086 11.5C1.56086 12.82 1.79086 14.04 2.25086 15.16C2.73086 16.28 3.39086 17.26 4.23086 18.1C5.09086 18.94 6.09086 19.59 7.23086 20.05C8.37086 20.51 9.61086 20.74 10.9509 20.74ZM34.5576 22.12C33.1776 22.12 31.9276 21.8 30.8076 21.16C29.7076 20.52 28.8276 19.61 28.1676 18.43C27.5276 17.23 27.2076 15.81 27.2076 14.17C27.2076 12.53 27.5276 11.12 28.1676 9.94C28.8276 8.74 29.7076 7.82 30.8076 7.18C31.9276 6.54 33.1776 6.22 34.5576 6.22C36.0376 6.22 37.3576 6.56 38.5176 7.24C39.6976 7.9 40.6176 8.83 41.2776 10.03C41.9576 11.23 42.2976 12.61 42.2976 14.17C42.2976 15.73 41.9576 17.11 41.2776 18.31C40.6176 19.51 39.6976 20.45 38.5176 21.13C37.3576 21.79 36.0376 22.12 34.5576 22.12ZM26.6976 27.82V6.34H28.1376V11.47L27.8976 14.2L28.1976 16.93V27.82H26.6976ZM34.4676 20.77C35.6676 20.77 36.7476 20.5 37.7076 19.96C38.6676 19.4 39.4176 18.62 39.9576 17.62C40.5176 16.62 40.7976 15.47 40.7976 14.17C40.7976 12.85 40.5176 11.7 39.9576 10.72C39.4176 9.72 38.6676 8.95 37.7076 8.41C36.7476 7.85 35.6676 7.57 34.4676 7.57C33.2676 7.57 32.1876 7.85 31.2276 8.41C30.2876 8.95 29.5376 9.72 28.9776 10.72C28.4376 11.7 28.1676 12.85 28.1676 14.17C28.1676 15.47 28.4376 16.62 28.9776 17.62C29.5376 18.62 30.2876 19.4 31.2276 19.96C32.1876 20.5 33.2676 20.77 34.4676 20.77ZM51.5017 22.12C50.1217 22.12 49.0617 21.74 48.3217 20.98C47.6017 20.22 47.2417 19.18 47.2417 17.86V2.92H48.7417V17.71C48.7417 18.71 48.9917 19.48 49.4917 20.02C49.9917 20.56 50.7117 20.83 51.6517 20.83C52.6317 20.83 53.4417 20.54 54.0817 19.96L54.7117 21.01C54.3117 21.39 53.8217 21.67 53.2417 21.85C52.6817 22.03 52.1017 22.12 51.5017 22.12ZM44.3617 7.63V6.34H53.7217V7.63H44.3617ZM58.8948 22V6.34H60.3948V22H58.8948ZM59.6448 2.53C59.3048 2.53 59.0148 2.41 58.7748 2.17C58.5348 1.93 58.4148 1.65 58.4148 1.33C58.4148 0.989999 58.5348 0.699999 58.7748 0.459998C59.0148 0.219999 59.3048 0.0999994 59.6448 0.0999994C60.0048 0.0999994 60.2948 0.219999 60.5148 0.459998C60.7548 0.679999 60.8748 0.959999 60.8748 1.3C60.8748 1.64 60.7548 1.93 60.5148 2.17C60.2948 2.41 60.0048 2.53 59.6448 2.53ZM86.2171 6.22C87.4771 6.22 88.5671 6.47 89.4871 6.97C90.4271 7.45 91.1571 8.19 91.6771 9.19C92.1971 10.17 92.4571 11.39 92.4571 12.85V22H90.9571V12.97C90.9571 11.21 90.5271 9.87 89.6671 8.95C88.8071 8.03 87.6071 7.57 86.0671 7.57C84.8871 7.57 83.8671 7.82 83.0071 8.32C82.1471 8.82 81.4871 9.52 81.0271 10.42C80.5671 11.32 80.3371 12.4 80.3371 13.66V22H78.8371V12.97C78.8371 11.21 78.4071 9.87 77.5471 8.95C76.6871 8.03 75.4871 7.57 73.9471 7.57C72.7671 7.57 71.7471 7.82 70.8871 8.32C70.0271 8.82 69.3671 9.52 68.9071 10.42C68.4471 11.32 68.2171 12.4 68.2171 13.66V22H66.7171V6.34H68.1571V10.66L67.9471 10.18C68.4071 8.96 69.1771 8 70.2571 7.3C71.3371 6.58 72.6371 6.22 74.1571 6.22C75.7171 6.22 77.0271 6.62 78.0871 7.42C79.1671 8.2 79.8471 9.37 80.1271 10.93L79.6171 10.72C80.0371 9.38 80.8271 8.3 81.9871 7.48C83.1471 6.64 84.5571 6.22 86.2171 6.22ZM98.6507 22V6.34H100.151V22H98.6507ZM99.4007 2.53C99.0607 2.53 98.7707 2.41 98.5307 2.17C98.2907 1.93 98.1707 1.65 98.1707 1.33C98.1707 0.989999 98.2907 0.699999 98.5307 0.459998C98.7707 0.219999 99.0607 0.0999994 99.4007 0.0999994C99.7607 0.0999994 100.051 0.219999 100.271 0.459998C100.511 0.679999 100.631 0.959999 100.631 1.3C100.631 1.64 100.511 1.93 100.271 2.17C100.051 2.41 99.7607 2.53 99.4007 2.53ZM110.433 22.12C109.133 22.12 107.913 21.93 106.773 21.55C105.653 21.17 104.783 20.69 104.163 20.11L104.853 18.91C105.453 19.43 106.253 19.88 107.253 20.26C108.253 20.62 109.333 20.8 110.493 20.8C112.133 20.8 113.313 20.53 114.033 19.99C114.753 19.45 115.113 18.74 115.113 17.86C115.113 17.22 114.923 16.72 114.543 16.36C114.183 15.98 113.693 15.69 113.073 15.49C112.453 15.29 111.773 15.13 111.033 15.01C110.293 14.87 109.553 14.72 108.813 14.56C108.073 14.4 107.393 14.17 106.773 13.87C106.153 13.57 105.653 13.16 105.273 12.64C104.913 12.1 104.733 11.39 104.733 10.51C104.733 9.71 104.953 8.99 105.393 8.35C105.833 7.71 106.493 7.2 107.373 6.82C108.253 6.42 109.353 6.22 110.673 6.22C111.653 6.22 112.633 6.36 113.613 6.64C114.613 6.92 115.423 7.29 116.043 7.75L115.353 8.95C114.693 8.45 113.953 8.09 113.133 7.87C112.313 7.65 111.483 7.54 110.643 7.54C109.123 7.54 108.003 7.82 107.283 8.38C106.583 8.94 106.233 9.64 106.233 10.48C106.233 11.14 106.413 11.67 106.773 12.07C107.153 12.45 107.653 12.75 108.273 12.97C108.893 13.17 109.573 13.34 110.313 13.48C111.053 13.6 111.793 13.74 112.533 13.9C113.273 14.06 113.953 14.29 114.573 14.59C115.193 14.87 115.683 15.27 116.043 15.79C116.423 16.29 116.613 16.97 116.613 17.83C116.613 18.69 116.373 19.44 115.893 20.08C115.433 20.72 114.743 21.22 113.823 21.58C112.903 21.94 111.773 22.12 110.433 22.12ZM125.359 22.12C123.979 22.12 122.919 21.74 122.179 20.98C121.459 20.22 121.099 19.18 121.099 17.86V2.92H122.599V17.71C122.599 18.71 122.849 19.48 123.349 20.02C123.849 20.56 124.569 20.83 125.509 20.83C126.489 20.83 127.299 20.54 127.939 19.96L128.569 21.01C128.169 21.39 127.679 21.67 127.099 21.85C126.539 22.03 125.959 22.12 125.359 22.12ZM118.219 7.63V6.34H127.579V7.63H118.219ZM138.316 22.12C136.816 22.12 135.476 21.78 134.296 21.1C133.136 20.42 132.206 19.48 131.506 18.28C130.826 17.08 130.486 15.71 130.486 14.17C130.486 12.61 130.826 11.24 131.506 10.06C132.206 8.86 133.136 7.92 134.296 7.24C135.476 6.56 136.816 6.22 138.316 6.22C139.816 6.22 141.156 6.56 142.336 7.24C143.516 7.92 144.446 8.86 145.126 10.06C145.806 11.24 146.146 12.61 146.146 14.17C146.146 15.71 145.806 17.08 145.126 18.28C144.446 19.48 143.516 20.42 142.336 21.1C141.156 21.78 139.816 22.12 138.316 22.12ZM138.316 20.77C139.516 20.77 140.596 20.5 141.556 19.96C142.516 19.4 143.266 18.62 143.806 17.62C144.346 16.62 144.616 15.47 144.616 14.17C144.616 12.85 144.346 11.7 143.806 10.72C143.266 9.72 142.516 8.95 141.556 8.41C140.596 7.85 139.516 7.57 138.316 7.57C137.116 7.57 136.036 7.85 135.076 8.41C134.136 8.95 133.386 9.72 132.826 10.72C132.286 11.7 132.016 12.85 132.016 14.17C132.016 15.47 132.286 16.62 132.826 17.62C133.386 18.62 134.136 19.4 135.076 19.96C136.036 20.5 137.116 20.77 138.316 20.77ZM21.0602 59L30.7202 38H32.2502L41.9102 59H40.2602L31.1402 38.96H31.8002L22.7102 59H21.0602ZM24.6002 53.09L25.1102 51.8H37.6802L38.1902 53.09H24.6002ZM45.2425 59V36.74H46.7425V59H45.2425ZM59.4248 59.12C57.8448 59.12 56.4448 58.78 55.2248 58.1C54.0248 57.42 53.0748 56.48 52.3748 55.28C51.6948 54.08 51.3548 52.71 51.3548 51.17C51.3548 49.61 51.6748 48.24 52.3148 47.06C52.9748 45.86 53.8748 44.92 55.0148 44.24C56.1548 43.56 57.4348 43.22 58.8548 43.22C60.2748 43.22 61.5448 43.55 62.6648 44.21C63.8048 44.87 64.6948 45.8 65.3348 47C65.9948 48.18 66.3248 49.55 66.3248 51.11C66.3248 51.17 66.3148 51.24 66.2948 51.32C66.2948 51.38 66.2948 51.45 66.2948 51.53H52.4648V50.36H65.4848L64.8848 50.93C64.9048 49.71 64.6448 48.62 64.1048 47.66C63.5848 46.68 62.8748 45.92 61.9748 45.38C61.0748 44.82 60.0348 44.54 58.8548 44.54C57.6948 44.54 56.6548 44.82 55.7348 45.38C54.8348 45.92 54.1248 46.68 53.6048 47.66C53.0848 48.62 52.8248 49.72 52.8248 50.96V51.23C52.8248 52.51 53.1048 53.65 53.6648 54.65C54.2448 55.63 55.0348 56.4 56.0348 56.96C57.0348 57.5 58.1748 57.77 59.4548 57.77C60.4548 57.77 61.3848 57.59 62.2448 57.23C63.1248 56.87 63.8648 56.32 64.4648 55.58L65.3348 56.57C64.6548 57.41 63.7948 58.05 62.7548 58.49C61.7348 58.91 60.6248 59.12 59.4248 59.12ZM77.4752 64.94C76.0552 64.94 74.7052 64.72 73.4252 64.28C72.1452 63.84 71.1052 63.23 70.3052 62.45L71.1152 61.31C71.8952 62.03 72.8252 62.59 73.9052 62.99C75.0052 63.39 76.1852 63.59 77.4452 63.59C79.5452 63.59 81.0852 63.1 82.0652 62.12C83.0652 61.14 83.5652 59.6 83.5652 57.5V53.15L83.8652 50.81L83.6252 48.47V43.34H85.0652V57.32C85.0652 59.94 84.4252 61.86 83.1452 63.08C81.8852 64.32 79.9952 64.94 77.4752 64.94ZM77.0552 58.43C75.5752 58.43 74.2452 58.11 73.0652 57.47C71.9052 56.81 70.9752 55.91 70.2752 54.77C69.5952 53.61 69.2552 52.29 69.2552 50.81C69.2552 49.31 69.5952 47.99 70.2752 46.85C70.9752 45.71 71.9052 44.82 73.0652 44.18C74.2452 43.54 75.5752 43.22 77.0552 43.22C78.4752 43.22 79.7452 43.53 80.8652 44.15C82.0052 44.75 82.9052 45.62 83.5652 46.76C84.2252 47.88 84.5552 49.23 84.5552 50.81C84.5552 52.37 84.2252 53.72 83.5652 54.86C82.9052 56 82.0052 56.88 80.8652 57.5C79.7452 58.12 78.4752 58.43 77.0552 58.43ZM77.1752 57.08C78.4352 57.08 79.5452 56.82 80.5052 56.3C81.4652 55.76 82.2152 55.02 82.7552 54.08C83.3152 53.12 83.5952 52.03 83.5952 50.81C83.5952 49.57 83.3152 48.48 82.7552 47.54C82.2152 46.6 81.4652 45.87 80.5052 45.35C79.5452 44.83 78.4352 44.57 77.1752 44.57C75.9552 44.57 74.8552 44.83 73.8752 45.35C72.9152 45.87 72.1552 46.6 71.5952 47.54C71.0552 48.48 70.7852 49.57 70.7852 50.81C70.7852 52.03 71.0552 53.12 71.5952 54.08C72.1552 55.02 72.9152 55.76 73.8752 56.3C74.8552 56.82 75.9552 57.08 77.1752 57.08ZM91.4144 59V43.34H92.8544V47.63L92.7044 47.15C93.1444 45.89 93.8844 44.92 94.9244 44.24C95.9644 43.56 97.2644 43.22 98.8244 43.22V44.69C98.7644 44.69 98.7044 44.69 98.6444 44.69C98.5844 44.67 98.5244 44.66 98.4644 44.66C96.7244 44.66 95.3644 45.21 94.3844 46.31C93.4044 47.39 92.9144 48.9 92.9144 50.84V59H91.4144ZM102.957 59V43.34H104.457V59H102.957ZM101.997 40.79L106.167 37.25H108.327L103.617 40.79H101.997ZM120.65 59V55.43L120.59 54.89V49.01C120.59 47.55 120.19 46.44 119.39 45.68C118.61 44.92 117.46 44.54 115.94 44.54C114.86 44.54 113.85 44.73 112.91 45.11C111.99 45.47 111.2 45.94 110.54 46.52L109.79 45.44C110.57 44.74 111.51 44.2 112.61 43.82C113.71 43.42 114.86 43.22 116.06 43.22C118 43.22 119.49 43.71 120.53 44.69C121.57 45.67 122.09 47.13 122.09 49.07V59H120.65ZM115.01 59.12C113.85 59.12 112.84 58.94 111.98 58.58C111.14 58.2 110.49 57.67 110.03 56.99C109.59 56.31 109.37 55.53 109.37 54.65C109.37 53.85 109.55 53.13 109.91 52.49C110.29 51.83 110.91 51.3 111.77 50.9C112.63 50.48 113.78 50.27 115.22 50.27H120.98V51.44H115.25C113.63 51.44 112.49 51.74 111.83 52.34C111.19 52.94 110.87 53.69 110.87 54.59C110.87 55.59 111.25 56.39 112.01 56.99C112.77 57.59 113.84 57.89 115.22 57.89C116.54 57.89 117.65 57.59 118.55 56.99C119.47 56.39 120.15 55.52 120.59 54.38L121.01 55.4C120.59 56.54 119.87 57.45 118.85 58.13C117.85 58.79 116.57 59.12 115.01 59.12ZM31.8242 96.15C30.2642 96.15 28.8142 95.89 27.4742 95.37C26.1542 94.83 25.0042 94.08 24.0242 93.12C23.0442 92.16 22.2842 91.04 21.7442 89.76C21.2042 88.46 20.9342 87.04 20.9342 85.5C20.9342 83.96 21.2042 82.55 21.7442 81.27C22.2842 79.97 23.0442 78.84 24.0242 77.88C25.0242 76.92 26.1842 76.18 27.5042 75.66C28.8242 75.12 30.2642 74.85 31.8242 74.85C33.3042 74.85 34.6842 75.09 35.9642 75.57C37.2642 76.05 38.3742 76.78 39.2942 77.76L38.3342 78.75C37.4342 77.87 36.4342 77.24 35.3342 76.86C34.2542 76.46 33.1042 76.26 31.8842 76.26C30.5442 76.26 29.2942 76.49 28.1342 76.95C26.9942 77.41 25.9942 78.06 25.1342 78.9C24.2942 79.74 23.6342 80.72 23.1542 81.84C22.6942 82.96 22.4642 84.18 22.4642 85.5C22.4642 86.82 22.6942 88.04 23.1542 89.16C23.6342 90.28 24.2942 91.26 25.1342 92.1C25.9942 92.94 26.9942 93.59 28.1342 94.05C29.2942 94.51 30.5442 94.74 31.8842 94.74C33.1042 94.74 34.2542 94.55 35.3342 94.17C36.4342 93.77 37.4342 93.12 38.3342 92.22L39.2942 93.21C38.3742 94.19 37.2642 94.93 35.9642 95.43C34.6842 95.91 33.3042 96.15 31.8242 96.15ZM53.5451 96V92.43L53.4851 91.89V86.01C53.4851 84.55 53.0851 83.44 52.2851 82.68C51.5051 81.92 50.3551 81.54 48.8351 81.54C47.7551 81.54 46.7451 81.73 45.8051 82.11C44.8851 82.47 44.0951 82.94 43.4351 83.52L42.6851 82.44C43.4651 81.74 44.4051 81.2 45.5051 80.82C46.6051 80.42 47.7551 80.22 48.9551 80.22C50.8951 80.22 52.3851 80.71 53.4251 81.69C54.4651 82.67 54.9851 84.13 54.9851 86.07V96H53.5451ZM47.9051 96.12C46.7451 96.12 45.7351 95.94 44.8751 95.58C44.0351 95.2 43.3851 94.67 42.9251 93.99C42.4851 93.31 42.2651 92.53 42.2651 91.65C42.2651 90.85 42.4451 90.13 42.8051 89.49C43.1851 88.83 43.8051 88.3 44.6651 87.9C45.5251 87.48 46.6751 87.27 48.1151 87.27H53.8751V88.44H48.1451C46.5251 88.44 45.3851 88.74 44.7251 89.34C44.0851 89.94 43.7651 90.69 43.7651 91.59C43.7651 92.59 44.1451 93.39 44.9051 93.99C45.6651 94.59 46.7351 94.89 48.1151 94.89C49.4351 94.89 50.5451 94.59 51.4451 93.99C52.3651 93.39 53.0451 92.52 53.4851 91.38L53.9051 92.4C53.4851 93.54 52.7651 94.45 51.7451 95.13C50.7451 95.79 49.4651 96.12 47.9051 96.12ZM61.1654 96V73.74H62.6654V96H61.1654ZM68.9876 96V80.34H70.4876V96H68.9876ZM69.7376 76.53C69.3976 76.53 69.1076 76.41 68.8676 76.17C68.6276 75.93 68.5076 75.65 68.5076 75.33C68.5076 74.99 68.6276 74.7 68.8676 74.46C69.1076 74.22 69.3976 74.1 69.7376 74.1C70.0976 74.1 70.3876 74.22 70.6076 74.46C70.8476 74.68 70.9676 74.96 70.9676 75.3C70.9676 75.64 70.8476 75.93 70.6076 76.17C70.3876 76.41 70.0976 76.53 69.7376 76.53ZM82.8399 96.12C81.3799 96.12 80.0599 95.79 78.8799 95.13C77.7199 94.45 76.7999 93.51 76.1199 92.31C75.4399 91.11 75.0999 89.73 75.0999 88.17C75.0999 86.59 75.4399 85.21 76.1199 84.03C76.7999 82.83 77.7199 81.9 78.8799 81.24C80.0599 80.56 81.3799 80.22 82.8399 80.22C84.2199 80.22 85.4599 80.54 86.5599 81.18C87.6799 81.82 88.5599 82.73 89.1999 83.91C89.8599 85.09 90.1899 86.51 90.1899 88.17C90.1899 89.79 89.8699 91.2 89.2299 92.4C88.5899 93.6 87.7099 94.52 86.5899 95.16C85.4899 95.8 84.2399 96.12 82.8399 96.12ZM82.9299 94.77C84.1299 94.77 85.1999 94.5 86.1399 93.96C87.0999 93.4 87.8499 92.62 88.3899 91.62C88.9499 90.62 89.2299 89.47 89.2299 88.17C89.2299 86.85 88.9499 85.7 88.3899 84.72C87.8499 83.72 87.0999 82.95 86.1399 82.41C85.1999 81.85 84.1299 81.57 82.9299 81.57C81.7299 81.57 80.6499 81.85 79.6899 82.41C78.7499 82.95 77.9999 83.72 77.4399 84.72C76.8999 85.7 76.6299 86.85 76.6299 88.17C76.6299 89.47 76.8999 90.62 77.4399 91.62C77.9999 92.62 78.7499 93.4 79.6899 93.96C80.6499 94.5 81.7299 94.77 82.9299 94.77ZM89.2599 96V90.87L89.5299 88.14L89.2299 85.41V73.74H90.7299V96H89.2599ZM103.414 96.12C101.834 96.12 100.434 95.78 99.214 95.1C98.014 94.42 97.064 93.48 96.364 92.28C95.684 91.08 95.344 89.71 95.344 88.17C95.344 86.61 95.664 85.24 96.304 84.06C96.964 82.86 97.864 81.92 99.004 81.24C100.144 80.56 101.424 80.22 102.844 80.22C104.264 80.22 105.534 80.55 106.654 81.21C107.794 81.87 108.684 82.8 109.324 84C109.984 85.18 110.314 86.55 110.314 88.11C110.314 88.17 110.304 88.24 110.284 88.32C110.284 88.38 110.284 88.45 110.284 88.53H96.454V87.36H109.474L108.874 87.93C108.894 86.71 108.634 85.62 108.094 84.66C107.574 83.68 106.864 82.92 105.964 82.38C105.064 81.82 104.024 81.54 102.844 81.54C101.684 81.54 100.644 81.82 99.724 82.38C98.824 82.92 98.114 83.68 97.594 84.66C97.074 85.62 96.814 86.72 96.814 87.96V88.23C96.814 89.51 97.094 90.65 97.654 91.65C98.234 92.63 99.024 93.4 100.024 93.96C101.024 94.5 102.164 94.77 103.444 94.77C104.444 94.77 105.374 94.59 106.234 94.23C107.114 93.87 107.854 93.32 108.454 92.58L109.324 93.57C108.644 94.41 107.784 95.05 106.744 95.49C105.724 95.91 104.614 96.12 103.414 96.12ZM112.948 96V94.98L123.658 81.12L124.048 81.63H113.098V80.34H125.218V81.36L114.478 95.22L114.028 94.71H125.398V96H112.948Z" fill="black"/>
</svg>
