<svg width="173" height="96" viewBox="0 0 173 96" fill="none" xmlns="http://www.w3.org/2000/svg">
<path d="M39.5389 21V-1.43051e-06H47.0689C48.8289 -1.43051e-06 50.3389 0.279999 51.5989 0.839998C52.8589 1.4 53.8289 2.21 54.5089 3.27C55.1889 4.31 55.5289 5.58 55.5289 7.08C55.5289 8.54 55.1889 9.8 54.5089 10.86C53.8289 11.92 52.8589 12.73 51.5989 13.29C50.3389 13.85 48.8289 14.13 47.0689 14.13H40.3789L41.0689 13.41V21H39.5389ZM41.0689 13.5L40.3789 12.75H47.0689C49.3289 12.75 51.0389 12.26 52.1989 11.28C53.3789 10.28 53.9689 8.88 53.9689 7.08C53.9689 5.26 53.3789 3.86 52.1989 2.88C51.0389 1.88 49.3289 1.38 47.0689 1.38H40.3789L41.0689 0.629999V13.5ZM66.8642 21.12C65.5242 21.12 64.3642 20.88 63.3842 20.4C62.4042 19.9 61.6442 19.16 61.1042 18.18C60.5842 17.18 60.3242 15.95 60.3242 14.49V5.34H61.8242V14.37C61.8242 16.13 62.2742 17.47 63.1742 18.39C64.0742 19.31 65.3442 19.77 66.9842 19.77C68.1642 19.77 69.1842 19.52 70.0442 19.02C70.9042 18.52 71.5642 17.82 72.0242 16.92C72.4842 16 72.7142 14.92 72.7142 13.68V5.34H74.2142V21H72.7742V16.65L72.9842 17.16C72.5242 18.38 71.7542 19.35 70.6742 20.07C69.6142 20.77 68.3442 21.12 66.8642 21.12ZM80.5726 21V5.34H82.0126V9.63L81.8626 9.15C82.3026 7.89 83.0426 6.92 84.0826 6.24C85.1226 5.56 86.4226 5.22 87.9826 5.22V6.69C87.9226 6.69 87.8626 6.69 87.8026 6.69C87.7426 6.67 87.6826 6.66 87.6226 6.66C85.8826 6.66 84.5226 7.21 83.5426 8.31C82.5626 9.39 82.0726 10.9 82.0726 12.84V21H80.5726ZM98.3291 21.12C96.7491 21.12 95.3491 20.78 94.1291 20.1C92.9291 19.42 91.9791 18.48 91.2791 17.28C90.5991 16.08 90.2591 14.71 90.2591 13.17C90.2591 11.61 90.5791 10.24 91.2191 9.06C91.8791 7.86 92.7791 6.92 93.9191 6.24C95.0591 5.56 96.3391 5.22 97.7591 5.22C99.1791 5.22 100.449 5.55 101.569 6.21C102.709 6.87 103.599 7.8 104.239 9C104.899 10.18 105.229 11.55 105.229 13.11C105.229 13.17 105.219 13.24 105.199 13.32C105.199 13.38 105.199 13.45 105.199 13.53H91.3691V12.36H104.389L103.789 12.93C103.809 11.71 103.549 10.62 103.009 9.66C102.489 8.68 101.779 7.92 100.879 7.38C99.9791 6.82 98.9391 6.54 97.7591 6.54C96.5991 6.54 95.5591 6.82 94.6391 7.38C93.7391 7.92 93.0291 8.68 92.5091 9.66C91.9891 10.62 91.7291 11.72 91.7291 12.96V13.23C91.7291 14.51 92.0091 15.65 92.5691 16.65C93.1491 17.63 93.9391 18.4 94.9391 18.96C95.9391 19.5 97.0791 19.77 98.3591 19.77C99.3591 19.77 100.289 19.59 101.149 19.23C102.029 18.87 102.769 18.32 103.369 17.58L104.239 18.57C103.559 19.41 102.699 20.05 101.659 20.49C100.639 20.91 99.5291 21.12 98.3291 21.12ZM107.863 21V19.98L118.573 6.12L118.963 6.63H108.013V5.34H120.133V6.36L109.393 20.22L108.943 19.71H120.313V21H107.863ZM134.681 21V17.43L134.621 16.89V11.01C134.621 9.55 134.221 8.44 133.421 7.68C132.641 6.92 131.491 6.54 129.971 6.54C128.891 6.54 127.881 6.73 126.941 7.11C126.021 7.47 125.231 7.94 124.571 8.52L123.821 7.44C124.601 6.74 125.541 6.2 126.641 5.82C127.741 5.42 128.891 5.22 130.091 5.22C132.031 5.22 133.521 5.71 134.561 6.69C135.601 7.67 136.121 9.13 136.121 11.07V21H134.681ZM129.041 21.12C127.881 21.12 126.871 20.94 126.011 20.58C125.171 20.2 124.521 19.67 124.061 18.99C123.621 18.31 123.401 17.53 123.401 16.65C123.401 15.85 123.581 15.13 123.941 14.49C124.321 13.83 124.941 13.3 125.801 12.9C126.661 12.48 127.811 12.27 129.251 12.27H135.011V13.44H129.281C127.661 13.44 126.521 13.74 125.861 14.34C125.221 14.94 124.901 15.69 124.901 16.59C124.901 17.59 125.281 18.39 126.041 18.99C126.801 19.59 127.871 19.89 129.251 19.89C130.571 19.89 131.681 19.59 132.581 18.99C133.501 18.39 134.181 17.52 134.621 16.38L135.041 17.4C134.621 18.54 133.901 19.45 132.881 20.13C131.881 20.79 130.601 21.12 129.041 21.12ZM8.62824 58.15C7.06824 58.15 5.58824 57.89 4.18824 57.37C2.80824 56.83 1.73824 56.14 0.978242 55.3L1.66824 54.16C2.38824 54.9 3.36824 55.53 4.60824 56.05C5.86824 56.55 7.19824 56.8 8.59824 56.8C9.99824 56.8 11.1382 56.62 12.0182 56.26C12.9182 55.88 13.5782 55.38 13.9982 54.76C14.4382 54.14 14.6582 53.45 14.6582 52.69C14.6582 51.79 14.4182 51.07 13.9382 50.53C13.4582 49.99 12.8282 49.56 12.0482 49.24C11.2682 48.92 10.4182 48.65 9.49824 48.43C8.57824 48.21 7.64824 47.98 6.70824 47.74C5.76824 47.48 4.90824 47.15 4.12824 46.75C3.34824 46.35 2.71824 45.81 2.23824 45.13C1.77824 44.43 1.54824 43.53 1.54824 42.43C1.54824 41.43 1.80824 40.51 2.32824 39.67C2.84824 38.83 3.65824 38.15 4.75824 37.63C5.85824 37.11 7.26824 36.85 8.98824 36.85C10.1482 36.85 11.2882 37.02 12.4082 37.36C13.5482 37.7 14.5182 38.16 15.3182 38.74L14.7482 39.97C13.8682 39.37 12.9182 38.93 11.8982 38.65C10.8982 38.35 9.92824 38.2 8.98824 38.2C7.64824 38.2 6.53824 38.39 5.65824 38.77C4.77824 39.15 4.12824 39.66 3.70824 40.3C3.28824 40.92 3.07824 41.62 3.07824 42.4C3.07824 43.3 3.30824 44.02 3.76824 44.56C4.24824 45.1 4.87824 45.53 5.65824 45.85C6.43824 46.17 7.29824 46.44 8.23824 46.66C9.17824 46.88 10.1082 47.12 11.0282 47.38C11.9482 47.62 12.7982 47.94 13.5782 48.34C14.3582 48.74 14.9882 49.28 15.4682 49.96C15.9482 50.64 16.1882 51.52 16.1882 52.6C16.1882 53.58 15.9182 54.5 15.3782 55.36C14.8382 56.2 14.0082 56.88 12.8882 57.4C11.7882 57.9 10.3682 58.15 8.62824 58.15ZM20.9095 58V42.34H22.4095V58H20.9095ZM21.6595 38.53C21.3195 38.53 21.0295 38.41 20.7895 38.17C20.5495 37.93 20.4295 37.65 20.4295 37.33C20.4295 36.99 20.5495 36.7 20.7895 36.46C21.0295 36.22 21.3195 36.1 21.6595 36.1C22.0195 36.1 22.3095 36.22 22.5295 36.46C22.7695 36.68 22.8895 36.96 22.8895 37.3C22.8895 37.64 22.7695 37.93 22.5295 38.17C22.3095 38.41 22.0195 38.53 21.6595 38.53ZM48.2318 42.22C49.4918 42.22 50.5818 42.47 51.5018 42.97C52.4418 43.45 53.1718 44.19 53.6918 45.19C54.2118 46.17 54.4718 47.39 54.4718 48.85V58H52.9718V48.97C52.9718 47.21 52.5418 45.87 51.6818 44.95C50.8218 44.03 49.6218 43.57 48.0818 43.57C46.9018 43.57 45.8818 43.82 45.0218 44.32C44.1618 44.82 43.5018 45.52 43.0418 46.42C42.5818 47.32 42.3518 48.4 42.3518 49.66V58H40.8518V48.97C40.8518 47.21 40.4218 45.87 39.5618 44.95C38.7018 44.03 37.5018 43.57 35.9618 43.57C34.7818 43.57 33.7618 43.82 32.9018 44.32C32.0418 44.82 31.3818 45.52 30.9218 46.42C30.4618 47.32 30.2318 48.4 30.2318 49.66V58H28.7318V42.34H30.1718V46.66L29.9618 46.18C30.4218 44.96 31.1918 44 32.2718 43.3C33.3518 42.58 34.6518 42.22 36.1718 42.22C37.7318 42.22 39.0418 42.62 40.1018 43.42C41.1818 44.2 41.8618 45.37 42.1418 46.93L41.6318 46.72C42.0518 45.38 42.8418 44.3 44.0018 43.48C45.1618 42.64 46.5718 42.22 48.2318 42.22ZM68.5254 58.12C67.1454 58.12 65.8954 57.8 64.7754 57.16C63.6754 56.52 62.7954 55.61 62.1354 54.43C61.4954 53.23 61.1754 51.81 61.1754 50.17C61.1754 48.53 61.4954 47.12 62.1354 45.94C62.7954 44.74 63.6754 43.82 64.7754 43.18C65.8954 42.54 67.1454 42.22 68.5254 42.22C70.0054 42.22 71.3254 42.56 72.4854 43.24C73.6654 43.9 74.5854 44.83 75.2454 46.03C75.9254 47.23 76.2654 48.61 76.2654 50.17C76.2654 51.73 75.9254 53.11 75.2454 54.31C74.5854 55.51 73.6654 56.45 72.4854 57.13C71.3254 57.79 70.0054 58.12 68.5254 58.12ZM60.6654 63.82V42.34H62.1054V47.47L61.8654 50.2L62.1654 52.93V63.82H60.6654ZM68.4354 56.77C69.6354 56.77 70.7154 56.5 71.6754 55.96C72.6354 55.4 73.3854 54.62 73.9254 53.62C74.4854 52.62 74.7654 51.47 74.7654 50.17C74.7654 48.85 74.4854 47.7 73.9254 46.72C73.3854 45.72 72.6354 44.95 71.6754 44.41C70.7154 43.85 69.6354 43.57 68.4354 43.57C67.2354 43.57 66.1554 43.85 65.1954 44.41C64.2554 44.95 63.5054 45.72 62.9454 46.72C62.4054 47.7 62.1354 48.85 62.1354 50.17C62.1354 51.47 62.4054 52.62 62.9454 53.62C63.5054 54.62 64.2554 55.4 65.1954 55.96C66.1554 56.5 67.2354 56.77 68.4354 56.77ZM80.9095 58V35.74H82.4095V58H80.9095ZM88.7318 58V42.34H90.2318V58H88.7318ZM89.4818 38.53C89.1418 38.53 88.8518 38.41 88.6118 38.17C88.3718 37.93 88.2518 37.65 88.2518 37.33C88.2518 36.99 88.3718 36.7 88.6118 36.46C88.8518 36.22 89.1418 36.1 89.4818 36.1C89.8418 36.1 90.1318 36.22 90.3518 36.46C90.5918 36.68 90.7118 36.96 90.7118 37.3C90.7118 37.64 90.5918 37.93 90.3518 38.17C90.1318 38.41 89.8418 38.53 89.4818 38.53ZM102.764 58.12C101.244 58.12 99.884 57.78 98.684 57.1C97.504 56.42 96.564 55.48 95.864 54.28C95.184 53.08 94.844 51.71 94.844 50.17C94.844 48.61 95.184 47.23 95.864 46.03C96.564 44.83 97.504 43.9 98.684 43.24C99.884 42.56 101.244 42.22 102.764 42.22C104.024 42.22 105.164 42.46 106.184 42.94C107.224 43.42 108.064 44.14 108.704 45.1L107.594 45.91C107.034 45.11 106.334 44.52 105.494 44.14C104.654 43.76 103.744 43.57 102.764 43.57C101.544 43.57 100.444 43.85 99.464 44.41C98.504 44.95 97.744 45.72 97.184 46.72C96.644 47.7 96.374 48.85 96.374 50.17C96.374 51.49 96.644 52.65 97.184 53.65C97.744 54.63 98.504 55.4 99.464 55.96C100.444 56.5 101.544 56.77 102.764 56.77C103.744 56.77 104.654 56.58 105.494 56.2C106.334 55.82 107.034 55.23 107.594 54.43L108.704 55.24C108.064 56.2 107.224 56.92 106.184 57.4C105.164 57.88 104.024 58.12 102.764 58.12ZM112.931 58V42.34H114.431V58H112.931ZM113.681 38.53C113.341 38.53 113.051 38.41 112.811 38.17C112.571 37.93 112.451 37.65 112.451 37.33C112.451 36.99 112.571 36.7 112.811 36.46C113.051 36.22 113.341 36.1 113.681 36.1C114.041 36.1 114.331 36.22 114.551 36.46C114.791 36.68 114.911 36.96 114.911 37.3C114.911 37.64 114.791 37.93 114.551 38.17C114.331 38.41 114.041 38.53 113.681 38.53ZM126.783 58.12C125.323 58.12 124.003 57.79 122.823 57.13C121.663 56.45 120.743 55.51 120.063 54.31C119.383 53.11 119.043 51.73 119.043 50.17C119.043 48.59 119.383 47.21 120.063 46.03C120.743 44.83 121.663 43.9 122.823 43.24C124.003 42.56 125.323 42.22 126.783 42.22C128.163 42.22 129.403 42.54 130.503 43.18C131.623 43.82 132.503 44.73 133.143 45.91C133.803 47.09 134.133 48.51 134.133 50.17C134.133 51.79 133.813 53.2 133.173 54.4C132.533 55.6 131.653 56.52 130.533 57.16C129.433 57.8 128.183 58.12 126.783 58.12ZM126.873 56.77C128.073 56.77 129.143 56.5 130.083 55.96C131.043 55.4 131.793 54.62 132.333 53.62C132.893 52.62 133.173 51.47 133.173 50.17C133.173 48.85 132.893 47.7 132.333 46.72C131.793 45.72 131.043 44.95 130.083 44.41C129.143 43.85 128.073 43.57 126.873 43.57C125.673 43.57 124.593 43.85 123.633 44.41C122.693 44.95 121.943 45.72 121.383 46.72C120.843 47.7 120.573 48.85 120.573 50.17C120.573 51.47 120.843 52.62 121.383 53.62C121.943 54.62 122.693 55.4 123.633 55.96C124.593 56.5 125.673 56.77 126.873 56.77ZM133.203 58V52.87L133.473 50.14L133.173 47.41V35.74H134.673V58H133.203ZM150.867 58V54.43L150.807 53.89V48.01C150.807 46.55 150.407 45.44 149.607 44.68C148.827 43.92 147.677 43.54 146.157 43.54C145.077 43.54 144.067 43.73 143.127 44.11C142.207 44.47 141.417 44.94 140.757 45.52L140.007 44.44C140.787 43.74 141.727 43.2 142.827 42.82C143.927 42.42 145.077 42.22 146.277 42.22C148.217 42.22 149.707 42.71 150.747 43.69C151.787 44.67 152.307 46.13 152.307 48.07V58H150.867ZM145.227 58.12C144.067 58.12 143.057 57.94 142.197 57.58C141.357 57.2 140.707 56.67 140.247 55.99C139.807 55.31 139.587 54.53 139.587 53.65C139.587 52.85 139.767 52.13 140.127 51.49C140.507 50.83 141.127 50.3 141.987 49.9C142.847 49.48 143.997 49.27 145.437 49.27H151.197V50.44H145.467C143.847 50.44 142.707 50.74 142.047 51.34C141.407 51.94 141.087 52.69 141.087 53.59C141.087 54.59 141.467 55.39 142.227 55.99C142.987 56.59 144.057 56.89 145.437 56.89C146.757 56.89 147.867 56.59 148.767 55.99C149.687 55.39 150.367 54.52 150.807 53.38L151.227 54.4C150.807 55.54 150.087 56.45 149.067 57.13C148.067 57.79 146.787 58.12 145.227 58.12ZM164.518 58.12C163.058 58.12 161.738 57.79 160.558 57.13C159.398 56.45 158.478 55.51 157.798 54.31C157.118 53.11 156.778 51.73 156.778 50.17C156.778 48.59 157.118 47.21 157.798 46.03C158.478 44.83 159.398 43.9 160.558 43.24C161.738 42.56 163.058 42.22 164.518 42.22C165.898 42.22 167.138 42.54 168.238 43.18C169.358 43.82 170.238 44.73 170.878 45.91C171.538 47.09 171.868 48.51 171.868 50.17C171.868 51.79 171.548 53.2 170.908 54.4C170.268 55.6 169.388 56.52 168.268 57.16C167.168 57.8 165.918 58.12 164.518 58.12ZM164.608 56.77C165.808 56.77 166.878 56.5 167.818 55.96C168.778 55.4 169.528 54.62 170.068 53.62C170.628 52.62 170.908 51.47 170.908 50.17C170.908 48.85 170.628 47.7 170.068 46.72C169.528 45.72 168.778 44.95 167.818 44.41C166.878 43.85 165.808 43.57 164.608 43.57C163.408 43.57 162.328 43.85 161.368 44.41C160.428 44.95 159.678 45.72 159.118 46.72C158.578 47.7 158.308 48.85 158.308 50.17C158.308 51.47 158.578 52.62 159.118 53.62C159.678 54.62 160.428 55.4 161.368 55.96C162.328 56.5 163.408 56.77 164.608 56.77ZM170.938 58V52.87L171.208 50.14L170.908 47.41V35.74H172.408V58H170.938ZM10.1455 95L0.785469 74H2.46547L11.4055 94.07H10.4755L19.4455 74H21.0355L11.6755 95H10.1455ZM29.1005 95.12C27.5205 95.12 26.1205 94.78 24.9005 94.1C23.7005 93.42 22.7505 92.48 22.0505 91.28C21.3705 90.08 21.0305 88.71 21.0305 87.17C21.0305 85.61 21.3505 84.24 21.9905 83.06C22.6505 81.86 23.5505 80.92 24.6905 80.24C25.8305 79.56 27.1105 79.22 28.5305 79.22C29.9505 79.22 31.2205 79.55 32.3405 80.21C33.4805 80.87 34.3705 81.8 35.0105 83C35.6705 84.18 36.0005 85.55 36.0005 87.11C36.0005 87.17 35.9905 87.24 35.9705 87.32C35.9705 87.38 35.9705 87.45 35.9705 87.53H22.1405V86.36H35.1605L34.5605 86.93C34.5805 85.71 34.3205 84.62 33.7805 83.66C33.2605 82.68 32.5505 81.92 31.6505 81.38C30.7505 80.82 29.7105 80.54 28.5305 80.54C27.3705 80.54 26.3305 80.82 25.4105 81.38C24.5105 81.92 23.8005 82.68 23.2805 83.66C22.7605 84.62 22.5005 85.72 22.5005 86.96V87.23C22.5005 88.51 22.7805 89.65 23.3405 90.65C23.9205 91.63 24.7105 92.4 25.7105 92.96C26.7105 93.5 27.8505 93.77 29.1305 93.77C30.1305 93.77 31.0605 93.59 31.9205 93.23C32.8005 92.87 33.5405 92.32 34.1405 91.58L35.0105 92.57C34.3305 93.41 33.4705 94.05 32.4305 94.49C31.4105 94.91 30.3005 95.12 29.1005 95.12ZM40.6409 95V79.34H42.0809V83.63L41.9309 83.15C42.3709 81.89 43.1109 80.92 44.1509 80.24C45.1909 79.56 46.4909 79.22 48.0509 79.22V80.69C47.9909 80.69 47.9309 80.69 47.8709 80.69C47.8109 80.67 47.7509 80.66 47.6909 80.66C45.9509 80.66 44.5909 81.21 43.6109 82.31C42.6309 83.39 42.1409 84.9 42.1409 86.84V95H40.6409ZM56.3197 95.12C55.0197 95.12 53.7997 94.93 52.6597 94.55C51.5397 94.17 50.6697 93.69 50.0497 93.11L50.7397 91.91C51.3397 92.43 52.1397 92.88 53.1397 93.26C54.1397 93.62 55.2197 93.8 56.3797 93.8C58.0197 93.8 59.1997 93.53 59.9197 92.99C60.6397 92.45 60.9997 91.74 60.9997 90.86C60.9997 90.22 60.8097 89.72 60.4297 89.36C60.0697 88.98 59.5797 88.69 58.9597 88.49C58.3397 88.29 57.6597 88.13 56.9197 88.01C56.1797 87.87 55.4397 87.72 54.6997 87.56C53.9597 87.4 53.2797 87.17 52.6597 86.87C52.0397 86.57 51.5397 86.16 51.1597 85.64C50.7997 85.1 50.6197 84.39 50.6197 83.51C50.6197 82.71 50.8397 81.99 51.2797 81.35C51.7197 80.71 52.3797 80.2 53.2597 79.82C54.1397 79.42 55.2397 79.22 56.5597 79.22C57.5397 79.22 58.5197 79.36 59.4997 79.64C60.4997 79.92 61.3097 80.29 61.9297 80.75L61.2397 81.95C60.5797 81.45 59.8397 81.09 59.0197 80.87C58.1997 80.65 57.3697 80.54 56.5297 80.54C55.0097 80.54 53.8897 80.82 53.1697 81.38C52.4697 81.94 52.1197 82.64 52.1197 83.48C52.1197 84.14 52.2997 84.67 52.6597 85.07C53.0397 85.45 53.5397 85.75 54.1597 85.97C54.7797 86.17 55.4597 86.34 56.1997 86.48C56.9397 86.6 57.6797 86.74 58.4197 86.9C59.1597 87.06 59.8397 87.29 60.4597 87.59C61.0797 87.87 61.5697 88.27 61.9297 88.79C62.3097 89.29 62.4997 89.97 62.4997 90.83C62.4997 91.69 62.2597 92.44 61.7797 93.08C61.3197 93.72 60.6297 94.22 59.7097 94.58C58.7897 94.94 57.6597 95.12 56.3197 95.12ZM76.5559 95V91.43L76.4959 90.89V85.01C76.4959 83.55 76.0959 82.44 75.2959 81.68C74.5159 80.92 73.3659 80.54 71.8459 80.54C70.7659 80.54 69.7559 80.73 68.8159 81.11C67.8959 81.47 67.1059 81.94 66.4459 82.52L65.6959 81.44C66.4759 80.74 67.4159 80.2 68.5159 79.82C69.6159 79.42 70.7659 79.22 71.9659 79.22C73.9059 79.22 75.3959 79.71 76.4359 80.69C77.4759 81.67 77.9959 83.13 77.9959 85.07V95H76.5559ZM70.9159 95.12C69.7559 95.12 68.7459 94.94 67.8859 94.58C67.0459 94.2 66.3959 93.67 65.9359 92.99C65.4959 92.31 65.2759 91.53 65.2759 90.65C65.2759 89.85 65.4559 89.13 65.8159 88.49C66.1959 87.83 66.8159 87.3 67.6759 86.9C68.5359 86.48 69.6859 86.27 71.1259 86.27H76.8859V87.44H71.1559C69.5359 87.44 68.3959 87.74 67.7359 88.34C67.0959 88.94 66.7759 89.69 66.7759 90.59C66.7759 91.59 67.1559 92.39 67.9159 92.99C68.6759 93.59 69.7459 93.89 71.1259 93.89C72.4459 93.89 73.5559 93.59 74.4559 92.99C75.3759 92.39 76.0559 91.52 76.4959 90.38L76.9159 91.4C76.4959 92.54 75.7759 93.45 74.7559 94.13C73.7559 94.79 72.4759 95.12 70.9159 95.12ZM88.7361 95.12C87.3561 95.12 86.2961 94.74 85.5561 93.98C84.8361 93.22 84.4761 92.18 84.4761 90.86V75.92H85.9761V90.71C85.9761 91.71 86.2261 92.48 86.7261 93.02C87.2261 93.56 87.9461 93.83 88.8861 93.83C89.8661 93.83 90.6761 93.54 91.3161 92.96L91.9461 94.01C91.5461 94.39 91.0561 94.67 90.4761 94.85C89.9161 95.03 89.3361 95.12 88.7361 95.12ZM81.5961 80.63V79.34H90.9561V80.63H81.5961ZM96.1292 95V79.34H97.6292V95H96.1292ZM96.8792 75.53C96.5392 75.53 96.2492 75.41 96.0092 75.17C95.7692 74.93 95.6492 74.65 95.6492 74.33C95.6492 73.99 95.7692 73.7 96.0092 73.46C96.2492 73.22 96.5392 73.1 96.8792 73.1C97.2392 73.1 97.5292 73.22 97.7492 73.46C97.9892 73.68 98.1092 73.96 98.1092 74.3C98.1092 74.64 97.9892 74.93 97.7492 75.17C97.5292 75.41 97.2392 75.53 96.8792 75.53ZM103.951 95V72.74H105.451V95H103.951ZM111.774 95V79.34H113.274V95H111.774ZM112.524 75.53C112.184 75.53 111.894 75.41 111.654 75.17C111.414 74.93 111.294 74.65 111.294 74.33C111.294 73.99 111.414 73.7 111.654 73.46C111.894 73.22 112.184 73.1 112.524 73.1C112.884 73.1 113.174 73.22 113.394 73.46C113.634 73.68 113.754 73.96 113.754 74.3C113.754 74.64 113.634 74.93 113.394 75.17C113.174 75.41 112.884 75.53 112.524 75.53ZM125.626 95.12C124.166 95.12 122.846 94.79 121.666 94.13C120.506 93.45 119.586 92.51 118.906 91.31C118.226 90.11 117.886 88.73 117.886 87.17C117.886 85.59 118.226 84.21 118.906 83.03C119.586 81.83 120.506 80.9 121.666 80.24C122.846 79.56 124.166 79.22 125.626 79.22C127.006 79.22 128.246 79.54 129.346 80.18C130.466 80.82 131.346 81.73 131.986 82.91C132.646 84.09 132.976 85.51 132.976 87.17C132.976 88.79 132.656 90.2 132.016 91.4C131.376 92.6 130.496 93.52 129.376 94.16C128.276 94.8 127.026 95.12 125.626 95.12ZM125.716 93.77C126.916 93.77 127.986 93.5 128.926 92.96C129.886 92.4 130.636 91.62 131.176 90.62C131.736 89.62 132.016 88.47 132.016 87.17C132.016 85.85 131.736 84.7 131.176 83.72C130.636 82.72 129.886 81.95 128.926 81.41C127.986 80.85 126.916 80.57 125.716 80.57C124.516 80.57 123.436 80.85 122.476 81.41C121.536 81.95 120.786 82.72 120.226 83.72C119.686 84.7 119.416 85.85 119.416 87.17C119.416 88.47 119.686 89.62 120.226 90.62C120.786 91.62 121.536 92.4 122.476 92.96C123.436 93.5 124.516 93.77 125.716 93.77ZM132.046 95V89.87L132.316 87.14L132.016 84.41V72.74H133.516V95H132.046ZM149.71 95V91.43L149.65 90.89V85.01C149.65 83.55 149.25 82.44 148.45 81.68C147.67 80.92 146.52 80.54 145 80.54C143.92 80.54 142.91 80.73 141.97 81.11C141.05 81.47 140.26 81.94 139.6 82.52L138.85 81.44C139.63 80.74 140.57 80.2 141.67 79.82C142.77 79.42 143.92 79.22 145.12 79.22C147.06 79.22 148.55 79.71 149.59 80.69C150.63 81.67 151.15 83.13 151.15 85.07V95H149.71ZM144.07 95.12C142.91 95.12 141.9 94.94 141.04 94.58C140.2 94.2 139.55 93.67 139.09 92.99C138.65 92.31 138.43 91.53 138.43 90.65C138.43 89.85 138.61 89.13 138.97 88.49C139.35 87.83 139.97 87.3 140.83 86.9C141.69 86.48 142.84 86.27 144.28 86.27H150.04V87.44H144.31C142.69 87.44 141.55 87.74 140.89 88.34C140.25 88.94 139.93 89.69 139.93 90.59C139.93 91.59 140.31 92.39 141.07 92.99C141.83 93.59 142.9 93.89 144.28 93.89C145.6 93.89 146.71 93.59 147.61 92.99C148.53 92.39 149.21 91.52 149.65 90.38L150.07 91.4C149.65 92.54 148.93 93.45 147.91 94.13C146.91 94.79 145.63 95.12 144.07 95.12ZM163.36 95.12C161.9 95.12 160.58 94.79 159.4 94.13C158.24 93.45 157.32 92.51 156.64 91.31C155.96 90.11 155.62 88.73 155.62 87.17C155.62 85.59 155.96 84.21 156.64 83.03C157.32 81.83 158.24 80.9 159.4 80.24C160.58 79.56 161.9 79.22 163.36 79.22C164.74 79.22 165.98 79.54 167.08 80.18C168.2 80.82 169.08 81.73 169.72 82.91C170.38 84.09 170.71 85.51 170.71 87.17C170.71 88.79 170.39 90.2 169.75 91.4C169.11 92.6 168.23 93.52 167.11 94.16C166.01 94.8 164.76 95.12 163.36 95.12ZM163.45 93.77C164.65 93.77 165.72 93.5 166.66 92.96C167.62 92.4 168.37 91.62 168.91 90.62C169.47 89.62 169.75 88.47 169.75 87.17C169.75 85.85 169.47 84.7 168.91 83.72C168.37 82.72 167.62 81.95 166.66 81.41C165.72 80.85 164.65 80.57 163.45 80.57C162.25 80.57 161.17 80.85 160.21 81.41C159.27 81.95 158.52 82.72 157.96 83.72C157.42 84.7 157.15 85.85 157.15 87.17C157.15 88.47 157.42 89.62 157.96 90.62C158.52 91.62 159.27 92.4 160.21 92.96C161.17 93.5 162.25 93.77 163.45 93.77ZM169.78 95V89.87L170.05 87.14L169.75 84.41V72.74H171.25V95H169.78Z" fill="black"/>
</svg>
